<?xml version="1.0" standalone="no"?>
<!DOCTYPE svg PUBLIC "-//W3C//DTD SVG 20010904//EN"
 "http://www.w3.org/TR/2001/REC-SVG-20010904/DTD/svg10.dtd">
<svg version="1.0" xmlns="http://www.w3.org/2000/svg"
 width="960.000000pt" height="960.000000pt" viewBox="0 0 960.000000 960.000000"
 preserveAspectRatio="xMidYMid meet">
<metadata>
Created by potrace 1.14, written by Peter Selinger 2001-2017
</metadata>
<g transform="translate(0.000000,960.000000) scale(0.100000,-0.100000)"
fill="#000000" stroke="none">
<path d="M0 9521 c0 -78 0 -79 28 -82 44 -6 72 1 65 17 -4 10 2 14 21 14 15 0
26 6 26 14 0 21 27 40 33 24 4 -10 7 -10 15 0 5 8 18 12 27 10 17 -3 18 -4 2
-20 -9 -9 -17 -21 -17 -27 0 -14 17 -14 25 -1 3 5 11 7 18 5 7 -3 21 2 31 10
16 12 17 17 6 30 -10 12 -10 15 2 15 8 0 20 -6 26 -12 10 -10 14 -8 18 10 4
12 11 22 16 22 6 0 8 -9 5 -20 -3 -11 -2 -18 2 -16 4 3 20 -2 35 -10 44 -22
108 -15 86 11 -7 9 0 12 29 13 28 1 41 -3 45 -15 6 -14 8 -14 22 3 14 18 14
18 4 -5 -10 -19 -9 -25 1 -32 17 -11 31 -7 37 11 3 7 0 10 -7 6 -6 -4 -11 -1
-11 8 0 26 40 20 41 -6 0 -22 1 -22 8 -3 5 11 6 24 3 29 -2 4 11 5 29 1 19 -5
39 -8 46 -8 7 0 14 -6 17 -14 3 -7 16 -13 28 -13 13 0 31 -9 41 -20 19 -22 33
-25 42 -10 3 6 -1 10 -9 10 -9 0 -16 7 -16 15 0 8 5 15 10 15 6 0 10 -4 10
-10 0 -5 10 -9 23 -7 18 2 22 -2 20 -25 -1 -16 1 -28 5 -28 13 0 28 15 35 33
6 15 10 16 28 6 14 -7 19 -7 15 0 -4 5 2 15 13 20 26 14 31 14 25 -3 -3 -7 2
-16 10 -19 12 -5 17 3 23 36 3 23 8 37 10 30 3 -8 14 -6 38 7 24 14 35 16 39
7 2 -7 5 -2 5 11 1 24 16 30 24 10 2 -7 8 -10 12 -6 4 4 3 14 -4 22 -10 12
-102 14 -586 15 l-575 1 0 -79z m40 55 c0 -3 -4 -8 -10 -11 -5 -3 -10 -1 -10
4 0 6 5 11 10 11 6 0 10 -2 10 -4z m220 -28 c0 -15 -25 -8 -37 11 -11 17 -10
18 13 7 13 -6 24 -14 24 -18z m110 28 c0 -3 -4 -8 -10 -11 -5 -3 -10 -1 -10 4
0 6 5 11 10 11 6 0 10 -2 10 -4z m705 -17 c-8 -12 -45 -12 -45 0 0 10 30 20
43 14 4 -3 5 -9 2 -14z m-758 -5 c-3 -3 -12 -4 -19 -1 -8 3 -5 6 6 6 11 1 17
-2 13 -5z m700 -21 c-3 -3 -11 -2 -17 2 -9 6 -9 10 1 16 14 8 27 -7 16 -18z
m-872 7 c3 -5 1 -10 -4 -10 -6 0 -11 5 -11 10 0 6 2 10 4 10 3 0 8 -4 11 -10z
m269 1 c3 -4 3 -11 0 -14 -8 -8 -34 3 -34 14 0 11 27 12 34 0z m-294 -5 c0
-11 -19 -15 -25 -6 -3 5 1 10 9 10 9 0 16 -2 16 -4z m10 -37 c0 -5 -11 -9 -25
-9 -28 0 -34 16 -7 23 20 4 32 -1 32 -14z m-69 -22 c-8 -8 -11 -7 -11 4 0 20
13 34 18 19 3 -7 -1 -17 -7 -23z m-26 14 c3 -5 1 -12 -5 -16 -5 -3 -10 1 -10
9 0 18 6 21 15 7z"/>
<path d="M490 9516 c0 -2 7 -9 15 -16 13 -11 14 -10 9 4 -5 14 -24 23 -24 12z"/>
<path d="M161 9474 c0 -11 3 -14 6 -6 3 7 2 16 -1 19 -3 4 -6 -2 -5 -13z"/>
<path d="M328 9483 c7 -3 16 -2 19 1 4 3 -2 6 -13 5 -11 0 -14 -3 -6 -6z"/>
<path d="M1080 9480 c0 -5 5 -10 11 -10 5 0 7 5 4 10 -3 6 -8 10 -11 10 -2 0
-4 -4 -4 -10z"/>
<path d="M1047 9459 c6 -22 23 -26 23 -5 0 8 -6 16 -14 19 -10 4 -12 0 -9 -14z"/>
<path d="M270 9460 c0 -5 5 -10 10 -10 6 0 10 5 10 10 0 6 -4 10 -10 10 -5 0
-10 -4 -10 -10z"/>
<path d="M135 9442 c-11 -2 -30 -15 -43 -30 -13 -16 -20 -20 -16 -9 4 12 1 17
-12 17 -11 0 -29 3 -41 6 l-22 6 -1 -450 c0 -448 0 -451 21 -457 11 -4 23 -4
26 -1 3 3 13 1 23 -4 10 -5 20 -6 24 -3 4 4 27 8 52 10 25 1 51 6 57 11 7 5
27 7 45 5 18 -1 32 2 32 8 0 7 10 9 26 5 14 -4 31 -3 37 2 19 15 66 20 70 8 2
-7 14 -4 31 7 26 17 27 21 20 73 -4 35 -3 54 4 54 6 0 13 -6 15 -12 4 -9 6 -8
6 3 1 8 -5 21 -11 28 -11 12 -9 13 7 6 11 -4 29 -9 40 -12 18 -4 18 -3 3 7
-15 9 -16 14 -5 30 6 11 15 20 20 20 4 0 5 -5 1 -12 -5 -8 -2 -9 12 -4 10 4
39 11 64 15 25 4 54 12 65 19 20 11 20 11 -2 12 -12 0 -25 5 -28 10 -4 6 -11
8 -16 5 -5 -4 -12 1 -15 9 -3 9 -10 14 -14 11 -4 -3 -12 1 -18 8 -12 14 -4 67
11 67 5 0 16 8 23 18 9 11 13 13 14 4 0 -7 5 -10 10 -7 21 13 -9 31 -44 29
-24 -2 -36 2 -40 13 -5 12 -1 14 16 10 12 -4 41 -1 65 5 36 9 41 13 33 28 -9
17 -50 35 -50 21 0 -4 -16 -7 -35 -7 -19 0 -35 3 -35 6 0 4 -24 3 -52 -1 -29
-3 -56 -5 -60 -2 -5 2 -8 0 -8 -6 0 -6 -29 -9 -72 -7 -90 4 -88 4 -88 17 0 6
7 9 15 5 8 -3 15 -1 15 5 0 6 7 6 19 -1 25 -13 51 -13 51 0 0 6 -9 10 -21 10
-11 0 -17 5 -14 10 3 6 15 10 26 10 11 0 22 7 25 15 4 8 17 15 30 15 15 0 24
6 24 15 0 9 7 18 15 21 20 8 19 30 -1 38 -43 17 -84 -1 -84 -36 0 -10 -3 -18
-7 -18 -14 0 -6 69 11 95 9 14 12 24 7 23 -6 -2 -19 13 -29 32 -12 22 -28 36
-43 38 -13 2 -28 10 -32 18 -9 16 -43 19 -49 5 -4 -11 -58 -2 -58 10 0 4 16
11 35 15 40 7 52 19 30 28 -8 3 -15 1 -15 -5 0 -6 -9 -8 -20 -4 -11 4 -20 2
-20 -4 0 -6 -10 -11 -22 -11 -17 0 -19 3 -10 12 20 20 14 31 -13 24 -31 -8
-33 8 -3 28 25 18 22 24 -7 18z m215 -312 c0 -5 -2 -10 -4 -10 -3 0 -8 5 -11
10 -3 6 -1 10 4 10 6 0 11 -4 11 -10z m97 -472 c-3 -8 -6 -5 -6 6 -1 11 2 17
5 13 3 -3 4 -12 1 -19z"/>
<path d="M998 9438 c5 -5 16 -8 23 -6 8 3 3 7 -10 11 -17 4 -21 3 -13 -5z"/>
<path d="M8090 8627 c0 -13 -5 -17 -18 -13 -16 5 -18 2 -14 -24 2 -16 9 -30
14 -30 6 0 8 6 5 14 -8 21 31 25 68 7 17 -8 37 -18 46 -22 17 -8 29 -3 29 13
0 4 -7 8 -15 8 -30 0 -65 24 -65 44 -1 20 -1 20 -14 3 -14 -18 -15 -18 -25 0
-10 17 -10 17 -11 0z"/>
<path d="M8025 8620 c3 -5 8 -10 11 -10 2 0 4 5 4 10 0 6 -5 10 -11 10 -5 0
-7 -4 -4 -10z"/>
<path d="M8170 8616 c0 -2 7 -6 15 -10 8 -3 15 -1 15 4 0 6 -7 10 -15 10 -8 0
-15 -2 -15 -4z"/>
<path d="M7986 8571 c-3 -5 1 -11 9 -15 8 -3 15 -1 15 4 0 13 -18 22 -24 11z"/>
<path d="M0 7890 c0 -261 3 -340 13 -344 9 -5 9 -7 -1 -12 -10 -5 -8 -10 7
-21 12 -8 21 -21 21 -29 0 -8 5 -14 10 -14 6 0 10 4 10 10 0 5 7 7 15 4 9 -4
15 0 15 9 0 8 -5 17 -12 19 -6 2 -8 10 -4 16 9 15 36 16 36 1 0 -6 9 -8 21 -4
13 5 25 2 30 -6 8 -14 47 -17 239 -22 73 -2 115 -7 136 -18 18 -9 51 -15 73
-14 29 2 44 -3 51 -14 7 -11 8 -7 4 15 -5 26 -2 32 14 36 11 3 25 1 31 -5 7
-7 28 -12 49 -13 20 -1 60 -5 87 -9 45 -6 53 -4 77 19 14 14 38 28 52 32 15 3
30 13 34 21 6 9 30 15 80 17 47 2 78 8 89 18 10 8 23 14 29 11 7 -2 9 7 6 26
-4 29 -23 41 -68 41 -23 0 -74 -22 -74 -32 0 -3 -18 -9 -39 -13 -42 -7 -43 -6
-113 60 -36 34 -87 55 -135 55 -17 0 -34 4 -38 9 -3 6 -13 10 -23 9 -34 0
-122 15 -122 21 0 4 -15 7 -32 8 -18 1 -40 3 -48 5 -10 2 -14 -3 -12 -14 2
-10 -2 -18 -8 -18 -5 0 -10 6 -10 13 0 8 -2 9 -8 1 -8 -13 -46 -2 -58 17 -5 9
-2 10 10 6 10 -4 23 -4 28 -1 6 4 -4 12 -23 18 -31 10 -34 14 -31 47 2 23 -4
48 -15 67 -25 41 -19 100 11 113 24 12 43 46 38 72 -4 20 -48 19 -61 -1 -9
-15 -61 -23 -92 -15 -12 4 -29 23 -40 47 -10 23 -19 36 -19 30 0 -6 -7 -11
-15 -11 -8 0 -12 4 -9 9 3 4 -8 11 -25 14 -17 4 -31 10 -31 14 0 4 -17 10 -37
13 -21 4 -55 10 -75 16 l-38 9 0 -338z m317 -126 c-3 -3 -12 -4 -19 -1 -8 3
-5 6 6 6 11 1 17 -2 13 -5z m13 -28 c0 -3 -4 -8 -10 -11 -5 -3 -10 -1 -10 4 0
6 5 11 10 11 6 0 10 -2 10 -4z m99 -63 c7 -12 10 -14 11 -4 0 11 3 11 15 1 8
-7 15 -20 15 -29 -1 -14 -2 -14 -11 1 -5 9 -16 15 -23 12 -8 -3 -19 4 -26 15
-13 26 4 29 19 4z m149 -43 c12 -16 22 -32 22 -35 0 -11 -29 -5 -33 8 -2 6
-19 12 -37 12 -18 0 -35 6 -37 13 -3 7 4 12 16 12 12 0 21 5 21 10 0 20 27 9
48 -20z m-183 -50 c8 -13 -5 -13 -25 0 -13 8 -13 10 2 10 9 0 20 -4 23 -10z
m114 -11 c-22 -14 -33 -10 -19 6 7 8 17 12 22 9 6 -4 5 -10 -3 -15z m-449 -19
c0 -5 -4 -10 -10 -10 -5 0 -10 5 -10 10 0 6 5 10 10 10 6 0 10 -4 10 -10z"/>
<path d="M7470 8090 c0 -5 5 -10 11 -10 5 0 7 5 4 10 -3 6 -8 10 -11 10 -2 0
-4 -4 -4 -10z"/>
<path d="M7493 8076 c-89 -16 -98 -31 -15 -26 17 1 32 -3 32 -8 0 -5 16 -8 36
-7 21 0 38 -5 41 -12 3 -7 9 -10 14 -7 15 9 153 -16 160 -28 6 -9 12 -8 23 1
12 10 16 11 16 1 0 -7 7 -10 17 -6 9 4 20 1 25 -6 6 -10 8 -9 8 4 0 9 -6 19
-12 21 -7 3 3 6 22 6 49 1 24 23 -27 23 -21 0 -42 3 -48 8 -13 10 -56 19 -124
25 -30 3 -57 8 -62 10 -4 3 -10 1 -14 -5 -4 -6 -11 -8 -16 -4 -5 3 -7 10 -4
15 4 5 3 8 -2 8 -4 -1 -36 -7 -70 -13z"/>
<path d="M7940 8010 c0 -5 5 -10 10 -10 6 0 10 -4 10 -10 0 -5 -9 -10 -21 -10
-15 0 -19 5 -15 16 3 8 2 13 -2 10 -5 -3 -9 -20 -10 -38 -1 -26 4 -36 23 -44
18 -9 22 -9 18 2 -2 7 -11 15 -19 18 -21 8 -17 26 5 26 11 0 23 5 26 10 10 15
23 12 28 -7 4 -14 5 -12 6 5 1 20 -9 27 -31 23 -5 0 -8 4 -8 9 0 6 -4 10 -10
10 -5 0 -10 -4 -10 -10z"/>
<path d="M7879 7958 c-2 -27 -1 -48 4 -48 13 0 17 24 8 60 l-8 35 -4 -47z"/>
<path d="M8028 7983 c7 -3 16 -2 19 1 4 3 -2 6 -13 5 -11 0 -14 -3 -6 -6z"/>
<path d="M1816 7964 c-9 -24 -7 -31 5 -11 6 9 14 15 20 12 5 -4 9 -1 9 4 0 17
-27 13 -34 -5z"/>
<path d="M1956 7963 c-12 -12 -6 -33 9 -33 8 0 15 6 15 14 0 17 -14 28 -24 19z"/>
<path d="M7965 7930 c3 -5 8 -10 11 -10 2 0 4 5 4 10 0 6 -5 10 -11 10 -5 0
-7 -4 -4 -10z"/>
<path d="M7430 7646 c0 -9 5 -16 10 -16 6 0 10 4 10 9 0 6 -4 13 -10 16 -5 3
-10 -1 -10 -9z"/>
<path d="M7473 7631 c-9 -26 -8 -30 10 -35 12 -3 27 0 34 6 15 12 18 52 4 43
-5 -3 -12 -1 -16 5 -11 17 -20 11 -32 -19z"/>
<path d="M7744 7637 c4 -22 2 -27 -9 -24 -7 3 -16 -1 -19 -9 -3 -8 -12 -14
-21 -14 -8 0 -15 -4 -15 -10 0 -5 7 -10 15 -10 8 0 38 -11 67 -25 64 -31 148
-44 148 -23 0 8 -16 28 -35 45 -19 17 -35 36 -35 42 0 6 -4 11 -10 11 -5 0
-10 -7 -10 -15 0 -15 -30 -22 -30 -7 -1 4 -12 21 -26 37 l-25 30 5 -28z"/>
<path d="M7840 7645 c0 -8 4 -15 10 -15 5 0 7 7 4 15 -4 8 -8 15 -10 15 -2 0
-4 -7 -4 -15z"/>
<path d="M7665 7640 c-3 -5 -1 -10 4 -10 6 0 11 5 11 10 0 6 -2 10 -4 10 -3 0
-8 -4 -11 -10z"/>
<path d="M7695 7640 c3 -5 10 -10 16 -10 5 0 9 5 9 10 0 6 -7 10 -16 10 -8 0
-12 -4 -9 -10z"/>
<path d="M7610 7595 c0 -9 5 -15 11 -13 6 2 11 8 11 13 0 5 -5 11 -11 13 -6 2
-11 -4 -11 -13z"/>
<path d="M0 7395 c0 -8 5 -15 10 -15 6 0 8 -11 4 -25 -4 -15 -2 -25 5 -25 6 0
11 -4 11 -10 0 -5 -7 -10 -15 -10 -13 0 -15 -21 -15 -129 0 -124 1 -129 20
-124 12 3 20 0 20 -7 0 -8 6 -9 18 -5 9 4 25 7 35 7 9 0 17 4 17 9 0 5 11 7
25 3 15 -4 25 -2 25 5 0 6 9 11 21 11 11 0 29 5 40 11 15 7 24 7 34 -1 8 -7
20 -8 27 -4 7 5 21 7 30 6 10 -2 32 3 50 11 18 8 41 17 51 21 42 13 9 48 -52
54 -58 5 -71 16 -41 32 11 6 20 15 20 19 0 14 -52 23 -63 12 -16 -16 -27 -13
-27 7 0 22 -40 62 -62 62 -9 0 -25 17 -36 38 -16 30 -24 36 -46 34 -14 -1 -26
1 -26 6 0 6 -9 12 -19 15 -15 4 -21 -1 -24 -22 l-4 -26 -2 28 c-1 28 -31 40
-31 12z m227 -147 c-3 -7 -5 -2 -5 12 0 14 2 19 5 13 2 -7 2 -19 0 -25z"/>
<path d="M6366 7291 c-9 -14 22 -21 46 -11 13 5 19 9 13 10 -5 1 -20 3 -32 6
-12 2 -24 0 -27 -5z"/>
<path d="M6473 7283 c9 -2 17 -13 17 -24 0 -10 5 -19 10 -19 14 0 13 23 -2 38
-7 7 -19 11 -27 11 -12 -1 -12 -2 2 -6z"/>
<path d="M2118 7264 c-4 -3 -34 -5 -68 -5 -57 0 -100 -13 -100 -31 0 -6 63
-16 140 -22 20 -2 46 -8 59 -15 24 -13 91 -7 91 8 0 15 33 22 42 9 6 -10 10
-10 17 2 13 19 11 20 -35 24 -22 2 -56 11 -76 20 -39 17 -61 20 -70 10z"/>
<path d="M6702 7253 c6 -7 14 -10 19 -7 15 9 10 20 -10 20 -15 0 -17 -3 -9
-13z"/>
<path d="M6565 7250 c3 -5 11 -10 16 -10 6 0 7 5 4 10 -3 6 -11 10 -16 10 -6
0 -7 -4 -4 -10z"/>
<path d="M6750 7251 c0 -6 4 -12 8 -15 5 -3 9 1 9 9 0 8 -4 15 -9 15 -4 0 -8
-4 -8 -9z"/>
<path d="M5615 6920 c-3 -5 1 -10 10 -10 9 0 13 5 10 10 -3 6 -8 10 -10 10 -2
0 -7 -4 -10 -10z"/>
<path d="M5655 6881 c-3 -6 3 -15 13 -20 20 -11 32 -6 32 13 0 6 -5 4 -10 -4
-8 -13 -10 -12 -10 3 0 18 -15 23 -25 8z"/>
<path d="M5567 6873 c-4 -3 -7 -11 -7 -17 0 -6 5 -5 12 2 6 6 9 14 7 17 -3 3
-9 2 -12 -2z"/>
<path d="M5596 6865 c-9 -26 -7 -32 5 -12 6 10 9 21 6 23 -2 3 -7 -2 -11 -11z"/>
<path d="M20 6836 c0 -29 37 -59 86 -68 75 -15 173 -21 187 -11 7 5 36 8 65 7
40 0 52 3 48 13 -3 7 -1 13 4 13 6 0 2 8 -7 19 -10 10 -22 15 -27 10 -5 -4
-19 -4 -31 1 -19 7 -24 5 -28 -11 -5 -18 -11 -20 -54 -13 -26 4 -62 18 -80 31
-24 18 -36 22 -50 15 -10 -5 -27 -6 -38 -1 -33 13 -75 10 -75 -5z"/>
<path d="M6080 6791 c0 -4 -11 -6 -24 -4 -13 3 -32 1 -41 -4 -15 -9 -15 -11
-1 -22 14 -11 16 -11 16 5 1 18 1 18 15 0 8 -10 19 -15 26 -10 8 5 11 2 7 -7
-4 -10 4 -15 31 -17 20 -1 45 -4 56 -7 11 -2 23 -4 27 -4 3 -1 9 -9 11 -18 4
-14 5 -12 6 5 1 27 17 29 31 2 11 -21 42 -17 34 4 -6 17 42 50 51 35 4 -6 4
-13 1 -16 -3 -4 -6 -1 -6 6 0 7 -4 9 -10 6 -5 -3 -10 -13 -10 -22 0 -12 8 -15
39 -10 22 3 43 2 46 -2 4 -3 10 -6 13 -7 22 -2 69 -17 84 -25 28 -15 33 -11
13 11 -10 11 -15 23 -12 27 9 9 -44 35 -60 29 -7 -3 -32 1 -55 9 -123 40 -288
61 -288 36z"/>
<path d="M5944 6775 c-8 -21 6 -41 17 -24 12 19 11 39 -1 39 -6 0 -13 -7 -16
-15z"/>
<path d="M5194 6755 c8 -8 18 -15 22 -15 3 0 1 7 -6 15 -7 8 -17 15 -22 15 -5
0 -3 -7 6 -15z"/>
<path d="M6026 6685 c4 -9 15 -20 25 -26 31 -16 22 -31 -15 -23 -50 9 -115 10
-110 2 3 -4 -9 -5 -26 -2 -23 5 -30 3 -30 -9 0 -10 -6 -14 -15 -11 -8 4 -15 1
-15 -5 0 -8 12 -10 35 -5 25 4 41 2 53 -8 9 -8 24 -18 33 -21 17 -6 32 -67 17
-67 -4 0 -8 -4 -8 -10 0 -5 5 -10 12 -10 6 0 21 -8 32 -19 27 -24 111 -55 125
-46 18 10 13 25 -9 25 -27 0 -25 16 5 42 13 11 22 25 19 30 -3 5 0 16 7 24 7
8 8 14 3 13 -19 -3 -53 13 -59 29 -7 19 10 39 19 23 4 -6 13 -11 19 -11 7 0
-2 13 -19 28 -17 15 -33 34 -37 42 -5 13 -6 13 -6 0 -1 -10 -6 -8 -17 8 -17
25 -47 30 -38 7z m104 -175 c0 -5 -4 -10 -10 -10 -5 0 -10 5 -10 10 0 6 5 10
10 10 6 0 10 -4 10 -10z"/>
<path d="M9574 6689 c-3 -6 -19 -9 -34 -5 -39 7 -53 -13 -30 -41 18 -22 18
-22 23 -2 3 12 10 18 16 15 6 -4 7 -14 4 -23 -5 -13 -2 -15 11 -10 10 4 22 7
27 7 5 0 9 16 9 35 0 34 -12 46 -26 24z"/>
<path d="M6260 6636 c0 -14 -4 -26 -10 -26 -5 0 -10 -8 -10 -17 -1 -16 -2 -16
-15 1 -8 11 -17 18 -19 15 -6 -6 -9 -39 -6 -69 l1 -25 12 24 11 23 12 -33 12
-34 1 30 c1 23 4 26 11 15 7 -12 12 -12 21 -3 10 10 8 18 -12 39 l-24 27 28
-5 c38 -7 42 6 12 38 l-25 27 0 -27z"/>
<path d="M4997 6643 c-19 -5 -19 -24 1 -31 7 -2 12 3 12 11 0 9 6 18 13 20 15
7 -2 6 -26 0z"/>
<path d="M9354 6643 c-6 -2 -9 -15 -6 -28 3 -18 11 -25 28 -25 13 0 28 -8 33
-17 9 -15 10 -12 11 15 0 25 -4 32 -20 32 -10 0 -23 6 -27 14 -4 7 -13 11 -19
9z"/>
<path d="M5140 6616 c0 -8 11 -16 26 -18 l27 -3 -28 -27 c-23 -23 -25 -30 -15
-43 7 -8 22 -15 34 -15 18 -1 19 -2 4 -10 -10 -6 -14 -18 -11 -30 6 -23 23
-27 23 -5 0 18 7 19 25 3 33 -30 42 -35 58 -32 15 2 17 -3 11 -31 -3 -20 -1
-35 5 -40 7 -4 13 5 17 22 3 15 12 37 20 48 15 20 15 20 32 0 9 -11 25 -19 35
-17 9 2 17 -1 17 -7 0 -6 -5 -11 -12 -11 -9 0 -8 -3 1 -12 11 -11 14 -10 18 0
3 6 9 10 14 6 5 -3 9 0 9 6 0 17 42 28 131 35 46 4 88 10 93 15 5 5 14 6 21 3
10 -3 12 2 8 16 -6 23 6 28 24 10 9 -9 11 -7 9 7 -2 11 -10 18 -20 16 -10 -2
-16 4 -16 14 0 10 -3 15 -6 12 -3 -4 -24 2 -47 12 -30 13 -44 16 -49 8 -5 -9
-10 -9 -21 0 -10 9 -34 9 -87 3 -80 -10 -92 -8 -83 14 4 12 -2 14 -28 11 -19
-2 -43 2 -54 9 -11 7 -49 16 -85 20 -36 4 -73 11 -82 16 -13 7 -18 6 -18 -5z
m325 -186 c-3 -5 -10 -10 -16 -10 -5 0 -9 5 -9 10 0 6 7 10 16 10 8 0 12 -4 9
-10z"/>
<path d="M520 6599 c0 -5 5 -7 10 -4 6 3 10 8 10 11 0 2 -4 4 -10 4 -5 0 -10
-5 -10 -11z"/>
<path d="M6347 6579 c-9 -5 -22 -7 -29 -3 -7 4 -8 3 -4 -4 4 -7 25 -12 47 -12
40 0 52 13 23 24 -19 7 -15 8 -37 -5z"/>
<path d="M535 6560 c20 -22 31 -20 22 5 -4 8 -14 15 -23 15 -16 0 -16 -2 1
-20z"/>
<path d="M4985 6570 c-3 -5 -1 -10 4 -10 6 0 11 5 11 10 0 6 -2 10 -4 10 -3 0
-8 -4 -11 -10z"/>
<path d="M9318 6562 c11 -7 8 -11 -10 -17 -20 -7 -18 -8 17 -14 65 -11 109 10
48 22 -16 3 -37 9 -48 12 -14 5 -16 4 -7 -3z"/>
<path d="M9450 6550 c0 -5 7 -10 15 -10 8 0 15 5 15 10 0 6 -7 10 -15 10 -8 0
-15 -4 -15 -10z"/>
<path d="M177 6534 c-4 -4 -4 -10 -1 -15 6 -10 34 0 34 12 0 10 -24 12 -33 3z"/>
<path d="M5751 6510 c0 -33 1 -34 10 -11 6 16 6 28 -1 35 -7 7 -10 -1 -9 -24z"/>
<path d="M6170 6521 c0 -25 6 -27 13 -6 4 8 2 17 -3 20 -6 4 -10 -3 -10 -14z"/>
<path d="M5911 6521 c-10 -7 -10 -10 -1 -16 6 -4 16 -3 22 3 13 13 -4 23 -21
13z"/>
<path d="M9490 6514 c0 -9 7 -14 17 -12 25 5 28 28 4 28 -12 0 -21 -6 -21 -16z"/>
<path d="M714 6494 c3 -8 -1 -14 -10 -14 -8 0 -12 5 -9 10 4 6 -8 10 -29 10
-39 0 -45 -10 -21 -30 13 -11 14 -10 9 4 -8 21 1 20 26 -1 11 -10 24 -18 28
-18 12 -1 55 -17 97 -35 62 -28 102 -32 137 -14 29 15 30 15 23 -4 -7 -24 12
-40 21 -18 3 9 12 16 20 16 23 0 16 26 -17 58 -31 30 -34 31 -105 26 -56 -3
-74 -1 -74 8 0 9 -17 14 -51 14 -39 2 -49 -1 -45 -12z m286 -70 c0 -8 -4 -12
-10 -9 -5 3 -10 10 -10 16 0 5 5 9 10 9 6 0 10 -7 10 -16z"/>
<path d="M510 6461 c0 -23 4 -29 16 -24 17 6 15 44 -3 51 -9 2 -13 -7 -13 -27z"/>
<path d="M5926 6481 c-4 -5 3 -7 14 -4 23 6 26 13 6 13 -8 0 -17 -4 -20 -9z"/>
<path d="M333 6468 c-35 -9 -49 -23 -33 -33 5 -3 10 -15 10 -25 0 -21 57 -44
84 -34 9 3 22 2 29 -3 15 -10 53 -11 50 0 -2 4 -3 13 -3 21 0 8 -13 17 -30 21
-16 4 -30 12 -30 18 -1 25 -43 44 -77 35z"/>
<path d="M564 6439 c-3 -5 -9 -7 -13 -4 -14 8 -51 -31 -51 -53 0 -25 53 -36
91 -17 18 8 32 9 44 2 15 -8 17 -7 11 8 -9 26 14 38 36 18 10 -9 25 -13 34 -9
16 6 15 10 -8 32 -21 22 -29 24 -47 15 -16 -9 -19 -9 -16 1 6 15 -72 22 -81 7z"/>
<path d="M6403 6431 c-26 -13 -31 -20 -26 -41 7 -28 26 -45 32 -29 2 7 6 7 11
-2 5 -7 18 -13 29 -14 17 -1 21 4 21 27 0 15 5 27 11 26 26 -6 16 18 -14 33
-29 15 -35 15 -64 0z"/>
<path d="M1030 6414 c0 -6 8 -18 18 -27 23 -21 72 -23 72 -3 0 19 -28 28 -50
16 -15 -8 -21 -6 -29 7 -6 10 -11 13 -11 7z"/>
<path d="M6154 6408 c-8 -13 6 -25 36 -31 l25 -4 -26 -2 c-39 -2 -45 -28 -9
-36 16 -4 34 -4 40 0 5 3 10 1 10 -6 0 -7 3 -9 6 -6 4 4 1 13 -6 22 -7 9 -10
19 -6 22 4 4 11 1 16 -7 6 -10 10 -11 10 -3 0 31 -82 74 -96 51z"/>
<path d="M5520 6399 c0 -5 5 -7 10 -4 6 3 10 8 10 11 0 2 -4 4 -10 4 -5 0 -10
-5 -10 -11z"/>
<path d="M5973 6396 c4 -10 1 -19 -8 -22 -8 -4 -15 -10 -15 -15 0 -16 21 -9
46 16 14 14 21 25 15 25 -5 0 -17 3 -27 7 -14 5 -16 3 -11 -11z"/>
<path d="M6297 6403 c-13 -12 -7 -33 9 -33 13 0 14 3 5 13 -6 8 -8 17 -4 20 3
4 4 7 1 7 -2 0 -8 -3 -11 -7z"/>
<path d="M6337 6403 c-12 -11 -8 -23 8 -23 8 0 15 7 15 15 0 16 -12 20 -23 8z"/>
<path d="M5366 6385 c-3 -8 -12 -15 -21 -15 -8 0 -15 -5 -15 -11 0 -6 7 -9 15
-6 8 4 17 2 20 -3 12 -20 25 -9 25 20 0 32 -14 40 -24 15z"/>
<path d="M6038 6388 c7 -7 12 -20 12 -29 0 -18 17 -26 60 -27 19 -1 26 4 26
18 0 13 -7 20 -21 20 -33 0 -65 12 -59 21 3 5 -3 9 -12 9 -14 0 -15 -3 -6 -12z"/>
<path d="M5830 6380 c0 -5 5 -10 11 -10 5 0 7 5 4 10 -3 6 -8 10 -11 10 -2 0
-4 -4 -4 -10z"/>
<path d="M5903 6382 c-13 -2 -23 -8 -23 -13 0 -13 37 -11 45 2 9 14 5 16 -22
11z"/>
<path d="M5730 6376 c0 -2 7 -6 15 -10 8 -3 15 -1 15 4 0 6 -7 10 -15 10 -8 0
-15 -2 -15 -4z"/>
<path d="M5450 6359 c0 -5 5 -7 10 -4 6 3 10 8 10 11 0 2 -4 4 -10 4 -5 0 -10
-5 -10 -11z"/>
<path d="M6520 6320 c7 -13 21 -20 40 -20 17 0 30 3 30 6 0 14 -31 34 -55 34
-23 0 -24 -2 -15 -20z"/>
<path d="M9400 6311 c0 -6 -13 -11 -30 -11 -20 0 -35 -8 -46 -25 -9 -14 -25
-25 -35 -25 -11 0 -19 -7 -19 -17 0 -13 9 -18 35 -20 19 -1 35 3 35 8 0 21 30
6 49 -25 21 -34 56 -52 67 -35 9 15 27 10 20 -6 -4 -10 1 -15 14 -15 11 0 29
-8 40 -17 10 -9 31 -18 45 -20 l25 -4 0 91 c0 61 -3 89 -10 85 -6 -4 -16 -2
-23 3 -11 8 -85 24 -127 26 -8 1 -21 5 -27 9 -8 5 -13 4 -13 -2z m-87 -78 c-7
-2 -19 -2 -25 0 -7 3 -2 5 12 5 14 0 19 -2 13 -5z"/>
<path d="M3428 6283 c-29 -7 -20 -20 25 -36 101 -36 217 -68 226 -63 5 4 12 2
16 -3 3 -6 26 -13 50 -17 25 -3 43 -10 40 -14 -3 -5 8 -11 24 -15 17 -3 32
-14 34 -23 4 -15 5 -15 6 1 1 17 2 17 19 0 11 -10 22 -26 25 -36 4 -10 11 -15
17 -12 6 3 10 -4 10 -18 0 -14 7 -28 16 -31 39 -15 104 4 76 22 -9 6 0 13 28
22 28 9 37 16 28 22 -10 6 -10 10 1 17 7 5 10 14 7 20 -9 14 -33 14 -38 1 -2
-6 -15 1 -29 14 -15 14 -30 22 -33 18 -4 -3 -16 -7 -27 -9 -16 -2 -19 1 -14
17 4 13 2 20 -7 20 -8 0 -29 16 -47 34 -28 29 -39 34 -63 29 -17 -3 -33 -1
-37 5 -4 6 -33 15 -66 21 -48 7 -62 7 -71 -4 -13 -17 -77 -10 -111 12 -16 11
-27 12 -42 4 -13 -7 -22 -8 -26 -1 -6 10 -9 11 -37 3z m522 -213 c0 -5 -4 -10
-10 -10 -5 0 -10 5 -10 10 0 6 5 10 10 10 6 0 10 -4 10 -10z"/>
<path d="M9117 6232 c-4 -22 -3 -24 6 -11 7 9 19 18 27 21 10 3 9 6 -7 10 -17
5 -22 0 -26 -20z"/>
<path d="M9020 6230 c0 -14 54 -18 72 -6 15 11 12 13 -27 14 -25 0 -45 -3 -45
-8z"/>
<path d="M9293 6203 c-18 -7 -16 -23 3 -23 8 0 12 -4 9 -10 -4 -6 8 -10 29
-10 20 0 36 5 36 11 0 5 -4 8 -9 4 -5 -3 -12 -1 -16 5 -9 15 -38 28 -52 23z"/>
<path d="M4374 6169 c-4 -7 -1 -10 7 -7 8 3 22 1 31 -4 14 -6 16 -5 12 7 -7
18 -40 20 -50 4z"/>
<path d="M9447 6101 c4 -15 1 -21 -11 -21 -9 0 -16 -6 -16 -14 0 -22 -41 -32
-54 -13 -16 21 -49 25 -63 7 -11 -13 -12 -13 -13 2 0 11 -6 15 -21 11 -12 -4
-18 -11 -15 -20 4 -9 2 -11 -7 -6 -20 13 -128 10 -123 -4 8 -20 -5 -23 -30 -6
-21 13 -27 13 -41 2 -9 -8 -39 -14 -66 -14 -30 -1 -52 -6 -55 -13 -2 -7 4 -12
14 -12 30 0 10 -10 -62 -30 -74 -21 -114 -19 -94 5 7 8 38 17 71 21 l59 7 0
33 c0 19 -5 34 -11 34 -6 0 -24 9 -40 20 -22 16 -33 19 -47 11 -11 -6 -22 -7
-26 -3 -4 3 -4 -1 -1 -10 5 -13 1 -17 -23 -16 -22 1 -29 5 -25 16 5 11 2 12
-13 4 -10 -5 -34 -8 -53 -7 -22 2 -29 0 -20 -6 11 -7 10 -9 -3 -9 -10 0 -18 5
-18 10 0 6 -5 10 -11 10 -5 0 -8 -4 -5 -9 4 -5 0 -11 -6 -14 -22 -7 -1 -19 49
-28 26 -5 53 -16 59 -24 7 -10 14 -11 21 -4 7 7 12 5 16 -5 5 -13 0 -16 -24
-14 -17 1 -33 6 -35 10 -3 4 -12 8 -21 8 -14 0 -14 -2 1 -19 18 -20 14 -41 -7
-41 -6 0 -28 -12 -48 -26 -28 -19 -42 -23 -56 -17 -10 5 -34 9 -55 9 -20 -1
-34 2 -31 7 2 4 0 7 -6 7 -5 0 -13 -4 -16 -10 -3 -5 -15 -10 -26 -10 -13 0
-19 -7 -19 -21 0 -21 2 -21 138 -16 157 7 183 11 198 32 11 15 29 22 21 8 -3
-5 55 -8 129 -8 82 0 134 -4 134 -10 0 -5 7 -2 15 9 9 11 18 15 27 10 7 -5 36
-10 63 -11 62 -2 103 -8 111 -15 10 -11 -49 -48 -78 -48 -16 0 -37 -4 -46 -9
-9 -5 -32 -11 -50 -14 -42 -7 -51 -15 -32 -28 16 -10 60 -7 145 9 28 6 55 6
60 2 17 -13 69 -19 86 -9 11 6 21 4 29 -6 13 -16 40 -9 40 10 0 16 32 25 92
25 26 0 58 4 72 10 l26 10 0 125 0 126 -32 -3 c-22 -2 -35 -9 -38 -21 -3 -10
-9 -17 -15 -17 -5 1 -9 6 -7 11 4 15 -10 10 -24 -8 -11 -15 -14 -15 -14 -3 -3
32 -9 53 -19 63 -7 7 -8 3 -4 -12z m-567 -31 c0 -5 -2 -10 -4 -10 -3 0 -8 5
-11 10 -3 6 -1 10 4 10 6 0 11 -4 11 -10z m-140 -100 c0 -5 -4 -10 -10 -10 -5
0 -10 5 -10 10 0 6 5 10 10 10 6 0 10 -4 10 -10z m55 -30 c4 -6 -10 -10 -34
-10 -52 0 -61 14 -10 17 21 1 41 -2 44 -7z m625 -32 c0 -9 4 -8 10 2 8 13 10
12 10 -4 0 -15 5 -17 30 -13 54 11 45 -24 -10 -36 -14 -3 -42 -10 -62 -15 -33
-9 -38 -8 -38 8 0 14 -7 16 -35 13 -39 -4 -44 6 -17 29 29 27 112 38 112 16z"/>
<path d="M3308 6091 c-2 -4 -23 -11 -47 -14 -29 -4 -40 -2 -30 4 11 7 10 9 -6
8 -26 -1 -66 -17 -45 -19 12 0 12 -3 -3 -14 -16 -12 -15 -14 10 -24 16 -5 37
-14 48 -18 11 -4 24 -6 29 -5 5 1 12 -2 15 -7 7 -9 85 -38 141 -52 19 -4 50
-13 68 -18 17 -6 32 -8 32 -6 0 3 7 -2 16 -10 8 -9 28 -16 43 -16 16 0 34 -6
40 -14 12 -15 60 -24 147 -29 29 -1 58 -8 65 -13 44 -35 121 -16 133 32 4 15
5 29 2 31 -9 10 -37 -7 -31 -17 12 -19 -49 1 -67 22 -21 24 -23 42 -4 35 17
-7 84 48 73 59 -4 5 -12 2 -17 -6 -8 -12 -10 -12 -16 3 -7 20 -64 24 -65 5 0
-7 -4 -3 -9 9 -8 20 -14 21 -72 17 -90 -8 -118 -6 -133 6 -9 8 -14 8 -17 0 -2
-8 -17 -7 -48 5 -25 8 -77 18 -117 22 -40 3 -70 9 -68 14 3 4 -3 6 -12 4 -10
-1 -26 1 -35 6 -9 5 -18 5 -20 0z m552 -242 c0 -5 -4 -9 -10 -9 -5 0 -10 7
-10 16 0 8 5 12 10 9 6 -3 10 -10 10 -16z"/>
<path d="M9018 6073 c7 -3 16 -2 19 1 4 3 -2 6 -13 5 -11 0 -14 -3 -6 -6z"/>
<path d="M4060 6050 c0 -5 5 -10 10 -10 6 0 10 5 10 10 0 6 -4 10 -10 10 -5 0
-10 -4 -10 -10z"/>
<path d="M8572 5989 c2 -6 8 -10 13 -10 5 0 11 4 13 10 2 6 -4 11 -13 11 -9 0
-15 -5 -13 -11z"/>
<path d="M4307 5973 c-5 -7 -6 -17 -2 -22 3 -5 -4 -12 -15 -16 -11 -3 -20 -13
-20 -22 0 -9 6 -13 15 -9 9 3 18 -1 21 -9 4 -8 10 -13 14 -10 5 3 11 1 15 -5
10 -17 61 -11 79 9 27 30 4 49 -50 43 -41 -4 -43 -3 -46 24 -2 19 -6 25 -11
17z"/>
<path d="M4180 5940 c0 -5 7 -10 15 -10 8 0 15 5 15 10 0 6 -7 10 -15 10 -8 0
-15 -4 -15 -10z"/>
<path d="M4450 5900 c0 -5 7 -10 15 -10 8 0 15 5 15 10 0 6 -7 10 -15 10 -8 0
-15 -4 -15 -10z"/>
<path d="M4160 5870 c0 -4 -7 -7 -16 -6 -9 0 -19 -5 -22 -13 -3 -10 3 -12 28
-6 27 6 32 4 37 -14 3 -14 13 -21 29 -21 28 0 31 14 7 39 -19 19 -63 34 -63
21z"/>
<path d="M4565 5860 c3 -5 8 -10 11 -10 2 0 4 5 4 10 0 6 -5 10 -11 10 -5 0
-7 -4 -4 -10z"/>
<path d="M4135 5820 c-3 -5 1 -10 9 -10 9 0 16 5 16 10 0 6 -4 10 -9 10 -6 0
-13 -4 -16 -10z"/>
<path d="M8977 5823 c-13 -12 -7 -23 13 -23 11 0 20 7 20 15 0 15 -21 21 -33
8z"/>
<path d="M9590 5781 c-4 -8 -23 -15 -46 -16 -22 -1 -53 -10 -67 -20 -15 -9
-27 -14 -27 -10 0 3 -7 0 -15 -9 -9 -8 -31 -20 -50 -25 -43 -12 -243 -3 -308
14 -28 7 -50 8 -53 3 -3 -5 -12 -4 -19 2 -10 8 -36 9 -82 4 -37 -4 -95 -8
-128 -9 -128 -3 -155 -5 -155 -13 0 -13 60 -30 128 -38 67 -7 85 -20 58 -39
-19 -14 -149 -8 -154 6 -2 5 -13 9 -25 9 -25 1 -57 22 -57 37 0 6 10 14 23 18
l22 8 -24 4 c-13 3 -35 -1 -48 -8 -18 -10 -26 -10 -35 -1 -17 17 -43 15 -59
-5 -12 -15 -12 -16 4 -10 11 4 17 2 17 -8 0 -25 -17 -25 -44 0 -26 24 -86 35
-86 16 0 -16 -43 -17 -78 -3 -30 12 -42 10 -107 -10 -46 -14 -76 -29 -78 -39
-3 -9 -20 -19 -39 -23 -20 -3 -43 -15 -53 -26 -10 -11 -26 -20 -36 -20 -20 0
-34 -16 -21 -24 4 -3 29 -7 54 -10 67 -8 81 -15 64 -31 -24 -25 -104 -53 -170
-60 -37 -4 -69 -36 -60 -59 14 -36 65 -45 252 -44 123 0 186 -3 202 -12 17 -9
24 -9 30 0 9 15 41 16 103 3 49 -11 88 -6 121 13 42 25 -16 57 -155 84 -56 11
-104 21 -106 24 -11 11 55 41 91 42 23 0 39 5 36 9 -7 11 43 25 110 31 30 3
60 10 67 15 6 6 27 7 45 4 55 -11 218 -14 218 -4 0 5 7 9 15 9 8 0 15 4 15 9
0 10 54 30 103 38 18 3 39 9 47 13 28 15 75 13 132 -4 56 -17 60 -17 150 4 51
12 106 26 122 31 35 11 86 12 86 2 0 -5 17 -8 38 -8 30 0 37 4 37 20 0 16 -6
19 -27 17 -16 -2 -28 1 -28 6 0 5 -10 13 -22 19 l-23 10 24 12 c19 11 28 11
47 0 30 -16 36 -9 32 33 -2 18 -5 27 -8 19z m-1023 -153 c-7 -4 -16 -8 -22 -8
-5 0 -3 5 5 10 13 9 13 10 0 10 -13 0 -13 1 0 10 9 6 17 5 22 -3 4 -6 2 -15
-5 -19z m-321 -83 c-3 -8 -1 -15 4 -15 6 0 10 4 10 9 0 14 77 24 97 13 16 -9
15 -11 -7 -15 -14 -3 -46 -9 -72 -15 -46 -9 -48 -8 -48 14 0 13 5 24 11 24 6
0 9 -7 5 -15z"/>
<path d="M8335 5720 c27 -12 35 -12 35 0 0 6 -12 10 -27 9 -25 0 -26 -1 -8 -9z"/>
<path d="M5246 5565 c-3 -8 -3 -22 0 -30 6 -15 84 -31 108 -22 8 3 16 2 18 -3
5 -15 48 1 48 17 0 9 -6 13 -14 10 -8 -3 -45 5 -82 19 -79 28 -71 27 -78 9z"/>
<path d="M5410 5490 c0 -5 5 -10 11 -10 5 0 7 5 4 10 -3 6 -8 10 -11 10 -2 0
-4 -4 -4 -10z"/>
<path d="M5440 5479 c0 -5 5 -9 10 -10 40 -4 64 -2 67 7 2 5 -15 10 -37 10
-22 1 -40 -2 -40 -7z"/>
<path d="M5615 5471 c-3 -5 -2 -12 2 -14 9 -5 53 10 53 18 0 9 -49 5 -55 -4z"/>
<path d="M2225 5460 c-3 -5 -1 -10 4 -10 6 0 11 5 11 10 0 6 -2 10 -4 10 -3 0
-8 -4 -11 -10z"/>
<path d="M2325 5450 c3 -5 10 -10 16 -10 5 0 9 5 9 10 0 6 -7 10 -16 10 -8 0
-12 -4 -9 -10z"/>
<path d="M3370 5426 c0 -2 7 -6 15 -10 8 -3 15 -1 15 4 0 6 -7 10 -15 10 -8 0
-15 -2 -15 -4z"/>
<path d="M7762 5402 c-7 -2 -10 -8 -6 -13 7 -12 64 -12 64 0 0 10 -40 19 -58
13z"/>
<path d="M2050 5391 c0 -5 7 -11 15 -15 8 -3 15 -12 15 -19 0 -8 11 -19 25
-25 32 -15 78 -16 70 -2 -3 6 1 10 9 10 34 0 13 16 -48 38 -71 24 -86 27 -86
13z"/>
<path d="M3430 5391 c0 -6 4 -13 10 -16 6 -3 7 1 4 9 -7 18 -14 21 -14 7z"/>
<path d="M5860 5372 c-25 -1 -56 -5 -69 -8 -45 -10 -1 -32 98 -49 77 -14 95
-14 102 -4 5 8 2 21 -8 31 -10 11 -12 18 -5 18 7 0 12 5 12 10 0 7 -18 10 -42
8 -24 -2 -63 -4 -88 -6z"/>
<path d="M3185 5240 c-19 -8 -19 -9 3 -9 12 -1 22 4 22 9 0 6 -1 10 -2 9 -2 0
-12 -4 -23 -9z"/>
<path d="M3104 5214 c3 -22 22 -38 30 -25 4 6 1 11 -6 11 -9 0 -9 3 2 10 8 5
13 10 10 11 -3 0 -12 2 -21 4 -10 2 -16 -3 -15 -11z"/>
<path d="M7505 5210 c-78 -22 -170 -92 -181 -136 -8 -30 0 -40 44 -51 38 -9
43 -25 10 -35 -16 -4 -18 -6 -5 -7 23 -1 22 -5 -13 -39 -18 -19 -30 -41 -31
-59 0 -15 -3 -39 -5 -53 -7 -33 -12 -400 -6 -422 2 -10 9 -15 16 -11 6 3 2 -3
-8 -15 -11 -12 -24 -32 -30 -45 -17 -33 -98 -38 -203 -11 -113 29 -192 22
-348 -32 -117 -40 -140 -45 -177 -38 -55 11 -78 8 -158 -18 -111 -36 -185 -94
-227 -179 -35 -72 -110 -241 -123 -280 -15 -41 -49 -91 -50 -71 0 7 -14 12
-35 12 -19 0 -35 4 -35 9 0 16 -53 19 -119 5 -36 -8 -78 -14 -93 -14 -16 0
-28 -6 -28 -12 0 -10 -34 -12 -142 -10 -225 5 -238 5 -523 0 -148 -3 -262 -3
-252 -1 9 3 17 9 17 15 0 7 -20 9 -57 5 -57 -5 -58 -5 -23 9 l35 13 -45 -6
c-50 -7 -123 -8 -466 -5 -126 1 -234 5 -238 9 -4 4 -170 9 -369 10 -461 2
-500 4 -509 23 -5 12 -7 12 -7 -2 -1 -11 -9 -18 -22 -18 -11 0 -17 4 -14 10 4
6 -16 8 -57 5 -35 -3 -146 -5 -248 -4 -102 0 -198 0 -214 -1 -35 -1 -50 -10
-18 -10 12 0 22 -3 22 -7 0 -5 -19 -7 -42 -6 -45 2 -70 2 -683 -3 -214 -1
-399 -2 -410 -1 -11 0 -63 0 -115 0 -52 -1 -124 -2 -160 -2 -36 0 -83 -1 -105
-2 -150 -4 -587 4 -887 17 l-168 7 0 -236 0 -235 23 -4 c21 -5 49 -4 153 3
l51 4 -9 33 c-9 33 -5 52 13 52 5 0 9 -5 9 -11 0 -5 -4 -7 -10 -4 -5 3 -10 2
-10 -3 0 -19 13 -19 32 0 13 13 29 18 44 15 25 -4 33 8 12 16 -8 3 -6 6 5 6 9
1 17 -6 17 -14 0 -8 5 -15 11 -15 6 0 9 7 5 15 -3 8 -1 15 4 15 6 0 10 -7 10
-15 0 -8 5 -15 11 -15 6 0 9 7 5 15 -3 8 -1 15 3 15 5 0 11 -7 15 -15 3 -8 11
-15 18 -15 9 0 8 3 -2 10 -13 8 -12 10 3 10 9 0 17 4 17 9 0 6 10 7 22 4 49
-12 118 -15 118 -4 0 7 36 10 115 7 63 -2 115 0 115 5 0 5 -10 9 -22 9 -18 0
-20 2 -8 10 12 7 10 11 -10 19 -15 6 -19 10 -9 10 9 1 22 -6 29 -14 9 -11 17
-12 31 -5 25 14 78 19 85 9 3 -5 13 -9 22 -9 15 0 15 2 2 10 -13 8 -12 10 3
10 9 0 17 -4 17 -9 0 -5 7 -12 16 -15 11 -4 15 -2 11 7 -4 10 2 14 16 13 12
-1 27 2 34 6 6 5 14 5 18 -2 3 -5 17 -10 31 -10 14 0 22 4 19 10 -3 6 0 10 9
10 8 0 16 -6 19 -12 3 -10 9 -10 25 -1 14 8 23 9 27 3 4 -6 13 -7 22 -1 9 5
28 5 43 1 15 -4 54 -6 86 -5 41 2 51 1 34 -5 -24 -8 -24 -8 7 -9 17 -1 33 4
35 9 2 6 22 12 45 13 23 0 41 6 40 12 -2 9 28 11 136 6 35 -1 55 -21 21 -21
-8 0 -12 -5 -9 -10 4 -6 19 -8 33 -6 15 2 32 5 39 5 7 1 10 8 7 16 -4 8 -1 15
5 15 6 0 11 -7 11 -15 0 -8 5 -15 10 -15 6 0 10 6 10 13 0 8 3 8 9 -2 6 -8 33
-16 67 -19 43 -4 55 -2 49 8 -6 9 -3 9 13 1 12 -6 46 -10 76 -8 31 2 60 -1 66
-7 8 -8 13 -7 18 1 4 6 22 11 39 11 23 -1 33 -7 38 -22 6 -18 8 -19 12 -4 3
12 12 16 26 14 12 -3 30 -5 40 -5 9 -1 17 -6 17 -12 0 -6 -9 -8 -22 -4 -20 5
-21 5 -5 -5 14 -9 22 -8 34 1 21 18 46 20 56 6 6 -8 10 -9 13 -1 5 11 176 10
195 -1 5 -4 9 6 9 21 0 22 2 25 15 14 11 -9 12 -16 5 -25 -14 -16 0 -28 17
-14 7 7 36 13 63 14 27 2 53 6 59 9 5 3 17 -1 26 -11 11 -11 19 -13 23 -6 4 7
45 11 105 10 70 -2 100 2 106 11 6 9 12 8 25 -7 14 -16 23 -18 37 -10 12 6 19
6 19 0 0 -11 21 -8 61 7 21 8 30 7 43 -6 14 -14 18 -15 25 -3 7 11 11 9 21 -8
9 -17 14 -20 25 -11 16 13 113 21 120 10 7 -12 65 -9 65 3 0 6 5 6 13 0 6 -5
27 -9 45 -7 17 1 32 -2 32 -7 0 -5 -10 -9 -22 -10 -13 0 -17 -3 -10 -6 17 -7
5 -23 -19 -23 -10 0 -19 -4 -19 -9 0 -5 34 -9 75 -9 41 0 75 4 75 9 0 5 -17 9
-37 9 -34 1 -36 2 -20 14 9 7 17 18 17 24 0 16 99 9 112 -9 8 -11 9 -11 4 4
-3 11 0 17 9 17 8 0 15 -4 15 -10 0 -5 12 -10 26 -10 22 0 25 2 14 15 -8 9 -9
15 -2 15 6 0 13 -4 17 -10 3 -5 18 -9 33 -9 15 0 90 0 167 0 77 -1 161 0 186
1 25 1 50 -1 55 -5 6 -3 28 -2 49 3 27 6 44 5 53 -2 10 -9 16 -8 22 3 7 10 12
11 21 2 7 -7 20 -9 33 -4 11 4 40 7 64 6 39 -1 47 5 42 30 -1 6 9 0 22 -12 25
-24 68 -31 68 -12 0 5 5 7 10 4 20 -12 133 -7 141 7 6 9 9 9 9 1 0 -6 12 -13
28 -15 15 -2 26 -8 24 -15 -1 -7 5 -13 13 -13 9 0 12 6 9 15 -7 18 0 19 28 4
14 -8 23 -8 31 0 16 16 54 13 83 -6 15 -10 28 -13 32 -7 11 15 63 11 57 -3 -2
-7 0 -13 5 -13 6 0 10 7 10 15 0 11 4 13 18 6 9 -6 38 -13 64 -16 32 -4 51
-12 58 -25 14 -26 62 -38 160 -40 53 -1 87 -6 92 -13 6 -9 8 -9 8 1 0 8 6 12
13 9 6 -2 11 -9 10 -15 -3 -11 15 -11 35 2 7 4 25 5 41 1 17 -3 32 -2 36 4 10
17 94 13 112 -5 10 -10 27 -14 46 -11 20 3 31 -1 35 -12 3 -9 15 -25 25 -36
19 -20 19 -20 8 2 -6 12 -7 24 -2 27 10 7 21 -16 21 -45 0 -10 3 -19 8 -19 4
0 6 19 4 41 -3 29 -1 39 7 35 6 -4 21 -2 33 5 12 7 31 13 43 13 11 1 19 7 17
14 -2 10 3 10 18 2 12 -6 18 -16 14 -23 -4 -7 2 -3 14 7 19 17 22 17 22 3 0
-22 26 -22 38 -1 6 11 11 13 16 5 13 -20 27 -12 16 9 -6 11 -20 20 -30 20 -22
0 -25 8 -10 30 8 12 12 13 19 1 6 -10 13 -10 28 -3 15 8 21 7 29 -6 15 -23 6
-46 -11 -32 -10 8 -13 4 -13 -22 0 -18 -6 -55 -12 -83 -6 -27 -13 -63 -15 -79
-5 -39 -21 -54 -30 -27 -8 27 -22 27 -30 0 -5 -16 -9 -18 -15 -9 -5 7 -6 19
-3 27 3 7 0 13 -6 13 -6 0 -11 -5 -11 -11 0 -5 -5 -7 -11 -3 -12 7 -33 10 -81
13 -16 1 -28 8 -31 19 -3 10 -5 5 -7 -13 l-2 -30 -10 28 c-10 29 -28 37 -28
12 0 -8 6 -15 13 -15 8 0 8 -3 -2 -9 -16 -11 -57 15 -64 39 -3 9 -9 3 -17 -17
-16 -44 -27 -41 -23 6 2 32 -1 40 -17 44 -17 4 -19 1 -13 -20 4 -18 2 -24 -6
-19 -6 4 -11 1 -11 -8 0 -8 5 -18 10 -21 6 -4 8 -11 4 -16 -10 -17 -24 1 -24
32 0 16 -4 29 -10 29 -5 0 -10 -10 -10 -22 0 -34 -11 -68 -22 -68 -5 0 -7 4
-3 9 9 16 -17 61 -36 61 -11 0 -27 16 -39 38 l-21 37 6 -42 c7 -55 -2 -78 -23
-61 -10 8 -13 8 -9 2 4 -7 0 -25 -8 -40 -15 -29 -19 -26 -16 9 2 10 -8 21 -24
27 -35 13 -37 13 -31 -7 3 -10 -2 -29 -10 -43 -14 -24 -15 -24 -11 -2 5 20 -3
27 -25 23 -12 -2 -9 14 4 27 17 17 0 28 -22 14 -12 -7 -20 -8 -22 -1 -7 21
-36 -2 -31 -24 4 -19 3 -20 -9 -6 -7 8 -21 18 -31 22 -20 7 -40 53 -31 70 3 7
-1 4 -10 -7 -14 -17 -16 -17 -38 -2 -29 21 -42 20 -34 -1 4 -9 2 -19 -4 -23
-6 -3 -11 -27 -12 -52 -2 -40 -4 -43 -17 -30 -13 12 -16 12 -27 -2 -10 -15
-12 -15 -17 3 -4 18 -28 23 -43 9 -9 -9 -44 14 -44 29 0 7 -9 10 -21 8 -14 -3
-19 0 -16 9 3 8 -2 24 -10 36 -13 19 -17 20 -24 7 -5 -8 -5 -28 0 -43 14 -42
20 -124 10 -129 -4 -3 -6 -12 -2 -20 3 -8 0 -15 -7 -15 -6 0 -9 4 -6 9 3 5 -1
11 -9 15 -24 9 -18 28 7 21 17 -6 20 -4 15 10 -4 9 -7 19 -7 21 0 2 -7 4 -15
4 -18 0 -19 4 -2 30 10 17 9 22 -3 30 -24 15 -30 12 -30 -19 0 -16 -7 -34 -15
-41 -13 -11 -15 -8 -15 19 0 17 -4 31 -10 31 -5 0 -10 -7 -10 -15 0 -23 -15
-18 -30 10 -14 25 -33 25 -23 0 3 -8 0 -16 -6 -16 -6 -1 -16 -2 -22 -3 -15 -1
-38 -46 -39 -73 0 -12 -5 -25 -12 -29 -8 -5 -9 -2 -5 10 10 24 -1 40 -18 26
-11 -9 -12 -7 -8 8 7 28 -14 37 -29 12 -15 -23 -28 -26 -28 -6 0 8 -6 17 -12
19 -8 3 -5 6 6 6 12 1 16 6 12 17 -3 9 -6 18 -6 20 0 2 -9 4 -20 4 -20 0 -25
17 -20 64 1 11 -3 15 -9 12 -6 -4 -11 -21 -11 -37 0 -33 -16 -31 -30 5 l-9 21
-7 -22 c-3 -13 -10 -23 -14 -23 -5 0 -11 -14 -15 -30 -5 -20 -14 -32 -31 -36
-13 -3 -21 -11 -18 -16 4 -6 -4 -8 -17 -6 -17 2 -30 17 -46 48 -12 25 -22 38
-22 29 -1 -9 -8 -20 -17 -23 -22 -9 -24 -8 -24 9 0 8 -4 15 -10 15 -5 0 -10 5
-10 11 0 6 7 8 16 5 11 -4 14 -1 12 12 -2 9 -11 16 -21 16 -9 -1 -17 2 -17 7
0 5 -5 9 -11 9 -6 0 -9 -7 -5 -15 3 -8 0 -27 -6 -41 -9 -20 -9 -27 1 -34 9 -5
10 -13 4 -25 -9 -15 -11 -13 -16 14 -4 17 -4 38 -1 46 4 10 0 15 -15 15 -14 0
-21 6 -21 20 0 11 -5 20 -11 20 -6 0 -8 -8 -5 -17 5 -18 10 -105 7 -131 -2
-28 -21 1 -21 33 0 19 -4 36 -9 39 -11 7 -21 -17 -21 -51 0 -25 -2 -24 -52 23
-29 26 -61 65 -70 86 -16 36 -48 53 -48 25 0 -22 -37 -60 -43 -45 -3 8 -6 5
-7 -7 -1 -20 -1 -20 -15 -1 -15 20 -15 20 -16 0 -1 -10 -1 -22 0 -26 0 -5 -4
-8 -10 -8 -5 0 -7 -6 -3 -12 5 -9 2 -9 -9 1 -9 7 -17 20 -17 27 0 17 -17 18
-23 2 -3 -7 -6 4 -6 24 -1 27 4 38 17 41 14 4 14 5 1 6 -24 2 -41 -24 -37 -56
2 -20 -3 -31 -17 -38 -11 -6 -20 -17 -21 -25 -3 -43 -4 -44 -20 -24 -8 10 -12
13 -8 5 5 -9 3 -12 -4 -7 -6 4 -11 26 -10 49 1 70 -1 89 -13 82 -6 -4 -8 -14
-5 -22 6 -15 -8 -49 -30 -70 -10 -11 -12 -9 -11 7 1 11 5 20 9 20 5 0 3 9 -4
20 -12 18 -13 17 -24 -18 -12 -37 -12 -37 -13 -7 -1 17 -6 37 -11 45 -8 13
-12 12 -25 -8 -9 -12 -20 -20 -25 -17 -4 2 -13 -8 -20 -24 -11 -28 -18 -31
-62 -30 -58 0 -68 4 -68 26 0 12 5 25 10 28 13 8 13 25 1 25 -5 0 -17 -7 -25
-16 -15 -14 -16 -14 -16 5 0 11 -4 23 -10 26 -6 3 -10 -5 -10 -19 0 -14 -4
-28 -10 -31 -6 -3 -10 -2 -10 3 0 5 -12 12 -26 15 -19 3 -28 -1 -34 -17 -7
-17 -9 -18 -9 -3 -1 9 -6 17 -12 17 -6 0 -8 -7 -5 -16 7 -20 -49 19 -62 43 -7
11 -11 -1 -17 -43 -7 -57 -8 -58 -22 -36 -9 12 -22 22 -29 22 -21 0 -17 21 6
27 23 6 24 8 9 35 -14 27 -2 36 16 12 8 -10 15 -14 15 -7 0 7 -16 23 -35 35
-19 13 -35 29 -35 36 0 6 -4 12 -10 12 -15 0 -12 -31 5 -64 17 -31 19 -56 7
-56 -5 0 -17 -15 -27 -34 -17 -31 -19 -32 -37 -17 -11 9 -24 25 -28 36 -7 16
-9 12 -15 -22 -9 -49 -22 -56 -31 -15 -10 44 -12 49 -13 20 -1 -40 -31 -38
-31 2 0 21 -4 28 -14 24 -8 -3 -17 -13 -19 -22 -3 -10 -5 -1 -6 18 -1 26 -4
31 -11 20 -5 -8 -7 -23 -4 -32 3 -10 1 -18 -5 -18 -5 0 -13 16 -17 35 -12 65
-22 45 -18 -38 3 -55 1 -75 -5 -62 -5 11 -10 32 -10 48 -1 25 -21 41 -21 16 0
-7 -8 -18 -17 -25 -17 -12 -16 -13 5 -14 26 0 27 -6 8 -25 -12 -12 -15 -12
-20 0 -3 8 -12 15 -19 15 -23 0 -42 29 -29 42 20 20 13 29 -10 17 -16 -9 -23
-9 -26 0 -5 14 -39 15 -47 1 -3 -5 -15 -10 -26 -10 -20 0 -24 -9 -12 -26 5 -5
0 -1 -9 9 -17 19 -18 18 -18 -9 0 -46 -16 -61 -23 -24 -4 19 -11 29 -18 25 -6
-4 -8 -13 -5 -21 3 -8 0 -11 -10 -7 -12 4 -14 14 -9 40 5 27 3 34 -7 31 -14
-5 -17 -47 -5 -91 5 -19 4 -27 -3 -22 -5 3 -10 15 -10 26 0 31 -16 22 -31 -18
-13 -34 -15 -35 -31 -19 -12 12 -15 23 -9 39 10 26 3 87 -10 87 -5 0 -9 -6 -9
-13 0 -19 -24 -67 -33 -67 -4 0 -7 6 -6 13 1 6 1 21 0 32 -1 16 -3 17 -10 5
-6 -8 -7 -18 -5 -22 3 -4 1 -8 -5 -8 -6 0 -13 11 -17 25 -8 30 -34 33 -34 4 0
-16 -5 -20 -20 -16 -11 3 -20 1 -20 -5 0 -5 -6 -16 -14 -24 -13 -12 -16 -12
-23 0 -4 8 -19 16 -33 18 -16 2 -26 10 -28 23 -3 17 -1 17 7 5 12 -18 15 -1 3
18 -12 18 -52 24 -45 7 3 -8 -3 -22 -13 -32 -12 -13 -19 -14 -22 -5 -5 17 -22
15 -22 -3 0 -8 -4 -15 -10 -15 -5 0 -10 4 -10 10 0 5 -10 9 -22 7 -28 -3 -40
-37 -19 -53 12 -9 13 -17 5 -35 l-11 -24 -7 23 c-7 22 -26 31 -26 11 0 -5 -4
-7 -10 -4 -5 3 -10 -1 -10 -10 0 -9 -4 -14 -9 -11 -5 4 -12 0 -14 -6 -3 -7 -6
-4 -7 7 l-1 20 -9 -20 c-8 -18 -9 -18 -9 5 -1 19 -4 21 -10 11 -5 -8 -7 -20
-4 -28 4 -9 0 -11 -11 -7 -9 3 -16 1 -16 -5 0 -6 -7 -11 -16 -11 -10 0 -14 6
-11 15 4 8 1 17 -5 21 -7 4 -8 3 -4 -4 4 -7 2 -12 -3 -12 -6 0 -11 7 -11 15 0
8 -5 15 -11 15 -6 0 -9 8 -7 17 2 10 11 18 21 18 22 0 23 18 0 22 -10 1 -24
-5 -31 -15 -12 -16 -15 -15 -36 9 -12 14 -29 28 -39 32 -21 8 -32 -9 -12 -20
8 -5 17 -22 21 -39 4 -24 2 -31 -10 -31 -9 0 -16 7 -16 15 0 9 -6 12 -16 8 -9
-3 -18 -6 -20 -6 -2 0 -4 -15 -4 -32 l0 -33 -20 25 -20 25 -1 -25 c0 -16 -3
-19 -6 -10 -3 8 -11 18 -17 22 -6 4 -12 12 -12 18 -1 5 -2 16 -3 23 -1 6 -11
-5 -24 -26 -13 -21 -26 -35 -29 -31 -4 3 -15 -1 -24 -11 -14 -13 -19 -14 -25
-3 -7 11 -11 10 -18 -2 -16 -24 -20 -7 -10 38 10 44 5 67 -12 57 -5 -4 -9 3
-9 14 0 12 -5 21 -11 21 -11 0 -9 -19 7 -102 4 -21 0 -29 -17 -39 -16 -8 -24
-9 -27 -1 -2 6 -10 8 -17 6 -8 -4 -32 13 -56 37 -45 46 -65 40 -31 -8 27 -39
10 -54 -48 -43 -24 4 -50 6 -57 3 -16 -6 -17 9 -1 25 8 8 8 12 1 12 -6 0 -13
9 -16 21 -3 13 -1 19 6 16 7 -3 11 -10 10 -16 -2 -6 2 -11 7 -11 6 0 10 4 10
8 0 12 -40 47 -41 36 -5 -76 -23 -113 -35 -78 -4 10 -11 21 -14 24 -4 3 -12
19 -18 35 -11 29 -11 29 -6 -7 7 -43 -2 -50 -16 -14 -10 26 -50 33 -50 9 0 -7
-4 -13 -10 -13 -5 0 -10 -9 -10 -19 0 -29 -17 -34 -34 -10 -9 13 -12 34 -9 53
2 17 0 42 -6 56 l-10 25 -2 -27 c-3 -48 -4 -51 -16 -55 -8 -3 -13 4 -13 17 0
11 -15 36 -33 54 -39 41 -67 74 -67 82 0 14 -32 35 -46 30 -12 -4 -7 -13 21
-38 30 -28 35 -39 35 -75 0 -24 -5 -43 -10 -43 -6 0 -21 -24 -35 -52 -21 -46
-24 -49 -25 -25 0 17 -4 26 -10 22 -6 -4 -9 -14 -8 -23 4 -26 -40 -28 -63 -3
-23 25 -24 58 -2 83 15 17 15 18 -5 18 -11 0 -23 -6 -25 -12 -4 -10 -8 -9 -16
2 -9 13 -12 11 -17 -8 -5 -18 -9 -20 -21 -10 -20 16 -53 18 -53 2 0 -7 10 -14
22 -16 30 -4 33 -29 8 -58 -12 -14 -20 -18 -20 -10 0 11 -3 11 -12 2 -16 -16
-28 -15 -28 3 0 9 -9 15 -21 15 -15 0 -19 -5 -15 -15 7 -19 -8 -19 -24 0 -7 8
-16 13 -20 10 -4 -3 -10 4 -13 14 -4 16 0 19 21 18 35 -3 36 13 2 52 -17 18
-30 42 -30 52 0 11 -4 19 -10 19 -5 0 -7 -6 -4 -14 3 -8 1 -17 -5 -21 -6 -3
-11 -2 -11 3 0 6 -9 8 -20 5 -14 -4 -20 0 -20 11 0 9 -4 16 -9 16 -13 0 -19
-32 -16 -91 l3 -53 -25 50 -25 49 5 -37 c3 -21 2 -40 -2 -43 -10 -5 -21 43
-21 86 0 38 -17 37 -25 -1 -6 -29 -14 -34 -42 -31 -7 1 -13 -3 -13 -9 0 -5 4
-10 9 -10 5 0 11 -11 13 -25 3 -14 2 -25 -3 -25 -4 0 -9 -10 -12 -22 -4 -23
-4 -23 -15 2 -8 18 -11 -358 -11 -1442 l-1 -1468 4800 0 4800 0 0 1619 c0
1425 -2 1620 -15 1625 -10 3 -17 -3 -21 -19 -7 -28 -22 -33 -30 -11 -9 23 -35
28 -50 9 -12 -17 -15 -16 -45 12 l-32 30 7 -29 c7 -27 6 -28 -11 -16 -10 8
-20 16 -22 17 -3 2 6 14 18 27 18 19 21 28 12 43 -10 17 -10 17 -11 0 0 -10
-6 -25 -14 -32 -15 -15 -27 -7 -39 25 -3 8 -4 -4 -2 -28 4 -46 -11 -102 -27
-102 -6 0 -8 7 -4 15 3 8 0 14 -6 12 -7 -1 -13 3 -13 8 -1 6 -5 17 -9 26 -4 9
-2 36 3 60 14 60 14 69 -4 69 -8 0 -15 8 -14 18 0 10 3 12 6 5 2 -7 9 -13 14
-13 4 0 6 7 3 15 -5 11 1 15 25 15 17 0 31 -3 31 -8 0 -4 18 -6 40 -4 26 3 40
9 40 18 0 8 7 14 15 14 8 0 14 -3 14 -7 -3 -20 2 -24 17 -12 14 11 18 10 30
-6 13 -17 14 -17 14 -1 0 13 7 16 38 14 l37 -3 2 139 2 138 -180 -6 c-99 -3
-184 -8 -188 -10 -4 -3 -129 -8 -277 -11 -244 -5 -267 -5 -250 10 11 8 15 15
8 15 -7 0 -2 21 14 58 14 31 33 77 41 101 12 32 18 40 25 30 7 -10 8 -8 5 9
-3 12 -1 22 4 22 4 0 6 7 3 15 -4 8 -1 15 5 15 6 0 11 8 11 19 0 10 6 31 14
45 12 23 15 24 26 11 10 -12 10 -15 -3 -15 -22 0 -28 -27 -13 -63 12 -30 13
-31 20 -10 6 19 10 21 39 11 18 -5 47 -16 64 -24 32 -15 73 -6 73 15 0 4 11
13 25 19 37 17 39 47 10 167 -14 61 -23 120 -20 133 3 12 1 22 -4 22 -13 0
-18 49 -8 87 6 23 3 41 -9 64 -12 25 -13 33 -3 39 9 6 6 17 -11 46 -13 22 -29
46 -35 54 -7 8 -15 39 -19 68 -7 56 -24 102 -37 102 -15 0 -32 -43 -33 -81
l-1 -37 -188 -2 c-143 0 -199 -4 -230 -16 -23 -9 -85 -31 -137 -49 -52 -19
-99 -40 -105 -47 -5 -8 -47 -33 -92 -56 -86 -44 -128 -51 -206 -33 -56 13 -85
45 -89 95 -3 39 -5 41 -32 39 -33 -2 -46 -17 -46 -50 0 -28 -9 -29 -55 -2 -32
19 -35 25 -30 53 7 34 -30 152 -70 221 -12 22 -26 56 -30 75 -4 19 -16 43 -26
53 -26 24 -24 35 5 30 17 -4 33 5 60 32 30 29 42 36 62 31 18 -5 31 0 50 19
22 22 25 33 20 63 -3 20 -14 48 -24 62 -38 51 -174 106 -227 90z m1266 -1068
c19 -17 44 -47 55 -67 l19 -37 -29 -23 c-42 -33 -78 -14 -90 48 -3 15 -10 27
-15 27 -6 0 -6 -12 0 -32 12 -42 12 -40 -10 -33 -35 11 -31 -12 4 -31 19 -10
35 -22 35 -26 0 -9 -135 -1 -175 10 -34 10 -43 37 -21 67 14 20 14 20 58 -2
34 -16 45 -18 45 -8 0 8 -4 12 -9 9 -4 -3 -8 0 -8 7 0 7 -3 10 -6 7 -3 -4 -15
3 -25 13 -20 20 -20 20 12 70 17 27 43 58 57 69 l25 20 21 -28 c12 -16 37 -43
57 -60z m-2297 -26 c-9 -15 -19 -24 -22 -22 -2 3 3 17 12 32 10 14 20 23 23
21 2 -3 -3 -17 -13 -31z m-80 -169 c5 -20 3 -27 -5 -22 -7 5 -9 1 -6 -11 3
-11 8 -36 12 -58 3 -21 8 -43 11 -48 4 -6 -7 -8 -27 -6 -23 2 -34 -1 -33 -9 3
-35 5 -38 17 -23 14 18 47 25 47 11 0 -20 -32 -41 -56 -36 -83 17 -75 8 -72
91 1 41 5 77 9 80 12 7 39 -26 39 -46 0 -33 19 -32 28 2 6 23 4 41 -5 58 -15
28 -18 74 -4 66 5 -3 12 2 16 12 8 18 10 13 29 -61z m2198 9 c42 -14 145 -32
161 -28 15 4 6 -30 -34 -129 -40 -102 -69 -156 -69 -130 0 11 -15 13 -75 8
-46 -3 -75 -2 -75 4 0 6 3 8 8 6 4 -3 8 5 9 16 1 12 5 53 9 91 l7 68 34 -36
c19 -20 36 -36 39 -36 11 0 1 22 -29 62 -18 24 -38 60 -44 81 -13 43 -8 45 59
23z m-2161 -106 c5 0 8 -21 7 -47 -1 -44 -2 -45 -5 -10 -2 20 -8 37 -14 37 -5
0 -8 15 -8 33 1 23 3 26 6 10 2 -13 9 -23 14 -23z m-168 -70 c-3 -11 -7 -20
-9 -20 -2 0 -4 9 -4 20 0 11 4 20 9 20 5 0 7 -9 4 -20z m-414 -70 c-6 -5 -19
-6 -27 -2 -13 4 -12 7 4 12 23 9 41 1 23 -10z m56 10 c3 -6 -4 -10 -17 -10
-18 0 -20 2 -8 10 19 12 18 12 25 0z m-582 -37 c-7 -2 -19 -2 -25 0 -7 3 -2 5
12 5 14 0 19 -2 13 -5z m270 0 c-7 -2 -21 -2 -30 0 -10 3 -4 5 12 5 17 0 24
-2 18 -5z m-4523 -223 c0 -5 -5 -10 -11 -10 -5 0 -7 5 -4 10 3 6 8 10 11 10 2
0 4 -4 4 -10z m-344 -30 c0 -13 -7 -20 -18 -20 -22 0 -22 4 -2 24 20 20 20 20
20 -4z m1819 11 c3 -5 1 -12 -5 -16 -5 -3 -10 1 -10 9 0 18 6 21 15 7z m282
-7 c-3 -3 -12 -4 -19 -1 -8 3 -5 6 6 6 11 1 17 -2 13 -5z m403 -14 c0 -5 -7
-7 -15 -4 -8 4 -15 8 -15 10 0 2 7 4 15 4 8 0 15 -4 15 -10z m545 0 c3 -5 1
-10 -4 -10 -6 0 -11 5 -11 10 0 6 2 10 4 10 3 0 8 -4 11 -10z m-305 -10 c0 -5
-5 -10 -11 -10 -5 0 -7 5 -4 10 3 6 8 10 11 10 2 0 4 -4 4 -10z m877 4 c-3 -3
-12 -4 -19 -1 -8 3 -5 6 6 6 11 1 17 -2 13 -5z m2813 -2 l66 -2 2 -46 c1 -28
-4 -55 -13 -67 -8 -12 -15 -28 -14 -37 0 -10 2 -11 6 -2 2 6 12 12 21 12 10 0
23 10 31 21 11 19 11 21 -3 16 -19 -7 -21 4 -4 21 9 9 9 12 0 12 -7 0 -12 14
-12 33 0 26 4 32 23 33 12 0 42 2 66 5 32 2 46 0 49 -10 3 -9 0 -12 -10 -9 -8
4 -30 3 -49 -2 -30 -7 -31 -8 -7 -9 25 -1 26 -3 23 -46 -1 -25 1 -45 6 -45 5
0 9 16 9 35 0 19 2 35 4 35 2 0 11 3 19 6 10 3 17 -2 20 -13 4 -14 5 -13 6 5
0 13 5 21 10 18 12 -8 42 4 36 14 -11 17 85 34 101 17 15 -15 61 -166 54 -177
-6 -10 -9 -7 -12 10 -2 13 -11 24 -21 26 -17 2 -17 1 -3 -21 21 -32 20 -38 -4
-30 -32 10 -23 -11 10 -25 34 -14 39 -35 10 -43 -15 -4 -20 0 -20 13 0 11 -4
22 -10 25 -5 3 -10 2 -10 -4 0 -5 -3 -17 -7 -27 -4 -12 -3 -15 5 -10 7 4 12 2
12 -4 0 -7 -7 -10 -15 -6 -9 3 -15 0 -15 -10 0 -12 -6 -15 -22 -9 -13 4 -31 7
-41 8 -18 1 -21 7 -32 66 -8 39 -26 61 -49 61 -8 0 -13 6 -10 13 3 8 -4 13
-17 14 -29 3 -67 53 -39 53 6 0 10 5 10 12 0 9 -3 9 -12 0 -9 -9 -16 -8 -31 6
-19 17 -19 17 -3 -15 9 -17 20 -35 26 -38 14 -9 12 -17 -11 -44 -17 -21 -22
-22 -29 -10 -7 9 -8 3 -5 -20 2 -18 11 -41 20 -51 11 -12 13 -20 6 -25 -15 -9
-33 4 -25 17 5 7 2 8 -7 2 -8 -4 -23 -10 -34 -11 -18 -3 -18 -2 3 18 13 11 21
24 18 27 -4 3 -12 -3 -20 -13 -8 -11 -18 -15 -26 -10 -8 5 -11 4 -6 -3 3 -6 2
-13 -3 -16 -5 -4 -12 -2 -16 4 -3 5 -11 10 -16 10 -6 0 -7 -5 -4 -10 7 -11
-12 -40 -25 -40 -5 0 -10 7 -12 16 -3 14 -7 13 -30 -6 -49 -38 -30 -1 29 58
33 34 58 52 60 45 7 -20 19 -15 19 7 0 11 -1 20 -2 20 -13 0 -62 -36 -100 -74
-37 -36 -54 -46 -71 -41 -15 3 -30 -3 -47 -20 -15 -14 -26 -22 -26 -17 0 5 3
12 7 16 11 10 12 36 2 36 -5 0 -9 -4 -9 -10 0 -5 -5 -10 -11 -10 -6 0 -9 6 -6
13 2 6 1 21 -4 32 -7 19 -8 19 -8 1 -1 -19 -2 -19 -21 2 -27 28 -28 28 -22 -5
5 -25 3 -27 -11 -15 -9 8 -15 17 -14 20 1 4 -2 8 -8 10 -5 1 -10 -16 -10 -37
-1 -22 3 -38 7 -35 4 3 8 12 8 21 0 9 3 14 6 10 3 -3 3 -15 -1 -26 -7 -24 -35
-29 -35 -6 0 9 -6 12 -15 9 -10 -4 -15 0 -15 15 0 31 41 135 58 145 10 6 11
10 3 15 -8 5 -7 19 2 52 10 34 18 44 35 45 12 1 27 -6 33 -15 8 -13 9 -13 5 4
-5 19 -1 20 87 20 50 -1 121 -2 157 -3z m255 -13 c-10 -15 -25 -10 -19 6 4 8
10 12 15 9 5 -3 7 -10 4 -15z m245 -4 c0 -9 7 -11 22 -7 14 3 19 1 14 -6 -3
-6 -2 -13 3 -16 5 -3 11 3 14 14 3 11 11 20 19 20 10 0 9 -3 -2 -10 -18 -12
-6 -12 42 -1 20 5 40 6 43 3 3 -3 16 -7 28 -9 17 -2 19 -1 7 6 -8 6 -11 13 -8
16 11 11 28 -5 28 -26 0 -11 -4 -17 -10 -14 -6 3 -7 -1 -4 -10 5 -13 9 -12 25
6 12 14 24 19 38 14 15 -5 21 -2 21 9 0 20 16 21 23 2 8 -19 -3 -177 -13 -195
-6 -11 -9 -10 -14 7 -7 20 -8 20 -36 -10 -30 -31 -30 -31 -31 -7 0 13 -3 19
-5 12 -4 -8 -14 -9 -35 -3 -16 5 -27 5 -24 0 3 -4 -2 -10 -10 -14 -19 -7 -32
18 -39 73 -5 44 -11 59 -22 48 -4 -4 -2 -19 4 -34 11 -29 26 -118 16 -95 -3 6
-10 12 -15 12 -6 0 -8 -3 -6 -7 3 -5 -1 -13 -8 -20 -10 -10 -16 -9 -25 2 -6 8
-9 18 -6 24 3 5 1 11 -5 13 -6 2 -13 19 -15 38 -5 41 -14 53 -14 17 0 -36 -18
-43 -26 -10 -4 15 -15 41 -25 58 -26 43 -34 101 -15 108 8 3 17 -2 21 -11 6
-15 8 -14 16 6 9 24 29 22 29 -3z m50 10 c0 -9 -6 -12 -16 -8 -13 5 -13 7 -2
14 17 11 18 11 18 -6z m474 -2 c14 -50 18 -96 7 -89 -6 4 -11 1 -11 -9 0 -8 7
-18 15 -21 18 -7 20 -45 3 -62 -9 -9 -9 -12 0 -12 7 0 12 -4 12 -9 0 -14 -43
1 -75 27 -22 17 -26 25 -17 34 7 7 12 23 12 37 0 30 21 91 32 91 4 0 5 7 2 15
-4 8 -1 15 4 15 6 0 13 -8 16 -17z m166 -16 c0 -5 -4 -5 -10 -2 -5 3 -10 14
-10 23 0 15 2 15 10 2 5 -8 10 -19 10 -23z m29 3 c5 -17 20 -35 33 -40 23 -10
23 -10 -2 -6 -14 3 -32 1 -40 -4 -11 -7 -8 -10 13 -10 24 0 27 -3 22 -20 -9
-27 1 -25 20 4 18 26 11 58 -11 49 -10 -4 -13 0 -8 13 5 16 4 16 -5 4 -8 -12
-10 -11 -8 7 1 22 2 22 22 4 11 -10 33 -29 49 -42 104 -85 108 -92 94 -147 -8
-29 -28 -37 -28 -11 0 6 5 7 12 3 7 -4 8 -3 4 5 -4 6 -12 9 -17 6 -5 -4 -9 -1
-9 5 0 6 -5 8 -12 4 -8 -5 -9 -2 -5 11 6 14 3 16 -15 11 -13 -3 -26 -6 -30 -6
-4 0 -8 -10 -10 -22 -2 -13 -9 -22 -17 -20 -7 1 -18 -1 -25 -6 -22 -18 -86 -8
-105 16 -15 21 -19 22 -30 8 -11 -13 -15 -13 -27 -1 -19 19 -19 42 0 26 11 -9
15 -6 18 14 3 14 1 25 -5 25 -7 0 -7 4 1 12 19 19 14 33 -6 14 -18 -15 -19
-15 -30 9 -7 14 -12 44 -12 67 0 41 0 41 20 23 11 -10 23 -15 27 -12 3 4 1 7
-5 7 -7 0 -12 5 -12 10 0 15 19 12 36 -5 17 -17 39 -21 29 -5 -3 6 -2 10 4 10
17 0 23 -20 11 -35 -6 -8 -19 -11 -28 -8 -14 4 -14 3 -3 -5 10 -7 21 -7 33 -1
10 5 18 6 18 2 0 -4 8 3 17 17 12 17 13 25 5 28 -14 4 -16 22 -3 22 5 0 14
-14 20 -30z m-1847 6 c-3 -6 -21 -28 -40 -48 -30 -33 -38 -36 -72 -32 -21 2
-41 0 -44 -5 -4 -5 9 -8 29 -7 19 2 35 0 35 -4 0 -5 -20 -21 -45 -36 -24 -16
-46 -36 -48 -44 -2 -11 -8 -7 -21 12 -20 30 -15 63 9 55 8 -4 12 -1 10 6 -8
21 39 102 57 99 9 -1 19 1 21 5 3 5 30 8 60 9 37 0 54 -4 49 -10z m-192 -17
c0 -5 -4 -9 -10 -9 -5 0 -10 7 -10 16 0 8 5 12 10 9 6 -3 10 -10 10 -16z
m2580 -5 c0 -3 -5 -15 -11 -27 -8 -19 -8 -20 3 -7 19 22 38 23 32 2 -5 -14 -3
-14 10 2 10 13 16 15 16 7 0 -10 3 -11 13 -3 7 6 22 11 32 11 11 -1 45 4 75 9
40 7 57 7 63 -2 5 -8 10 -7 17 4 9 13 12 13 24 -2 16 -22 36 -23 36 -3 0 8 4
15 9 15 11 0 23 -59 15 -71 -3 -6 -1 -16 5 -23 8 -9 8 -22 1 -40 -10 -26 -30
-36 -30 -14 0 6 -3 9 -6 5 -4 -3 -14 3 -23 14 -9 12 -31 23 -49 25 -29 3 -32
2 -22 -16 14 -26 13 -35 -4 -21 -10 8 -16 9 -21 1 -10 -15 -25 -12 -19 5 5 11
0 13 -25 5 -16 -4 -39 -6 -49 -3 -10 2 -24 -3 -32 -12 -11 -13 -10 -15 3 -9
16 6 18 -10 4 -33 -10 -16 -55 6 -64 32 -6 17 -8 14 -14 -15 -5 -27 -7 -20 -8
33 -1 46 -5 66 -12 62 -6 -4 -8 -14 -4 -22 7 -19 -4 -83 -15 -83 -4 0 -11 17
-15 37 -5 27 -9 33 -16 22 -5 -8 -9 -24 -9 -35 0 -35 -27 -37 -34 -3 -5 27
-26 42 -26 18 0 -15 -18 -2 -31 23 -6 12 -7 18 -1 14 5 -3 12 1 16 9 3 8 13
15 21 15 9 0 13 5 10 10 -4 7 -11 7 -18 2 -31 -23 -47 -21 -62 9 -17 32 -11
59 8 40 6 -6 21 -11 34 -11 13 0 23 -4 23 -10 0 -5 7 -10 15 -10 8 0 12 6 9
14 -7 17 57 16 79 -2 12 -10 16 -8 21 13 5 21 26 37 26 19z m-3754 -35 c21
-11 31 -18 21 -15 -11 4 -30 9 -43 12 -13 3 -24 10 -24 15 0 12 1 12 46 -12z
m944 -4 c0 -7 -7 -15 -15 -19 -8 -3 -15 -1 -15 5 0 6 -4 7 -10 4 -17 -11 -11
7 7 21 20 14 33 10 33 -11z m161 3 c11 -17 11 -31 0 -24 -5 3 -8 -5 -7 -18 0
-14 6 -22 14 -19 6 3 12 0 12 -7 0 -6 9 -23 20 -37 11 -14 20 -33 20 -42 -1
-9 -7 -3 -15 14 -14 29 -14 24 1 -40 6 -25 8 -27 14 -10 5 15 8 11 14 -19 4
-22 3 -42 -2 -45 -5 -3 -8 -18 -6 -33 3 -34 2 -34 -32 -3 -16 15 -24 31 -20
40 3 8 1 15 -4 15 -13 0 -13 37 1 62 9 18 9 20 -4 15 -9 -3 -18 -1 -21 6 -2 7
-5 5 -5 -4 -1 -9 -12 -28 -25 -42 -20 -22 -25 -24 -30 -10 -4 9 -4 25 0 36 3
11 2 17 -3 14 -5 -3 -19 21 -31 53 -11 33 -18 59 -14 59 4 -1 21 -1 37 0 30 2
30 2 6 12 -14 5 -30 8 -38 5 -19 -8 -28 15 -11 28 20 15 119 11 129 -6z m49
13 c0 -13 -26 -32 -33 -24 -14 13 -6 33 13 33 11 0 20 -4 20 -9z m-6135 -9 c6
-4 12 -17 12 -29 2 -27 -27 -31 -51 -7 -10 10 -24 13 -37 9 -15 -5 -19 -4 -14
5 14 23 70 37 90 22z m5305 -12 c0 -5 -9 -10 -20 -10 -11 0 -20 5 -20 10 0 6
9 10 20 10 11 0 20 -4 20 -10z m70 0 c0 -5 -9 -10 -19 -10 -11 0 -23 5 -26 10
-4 6 5 10 19 10 14 0 26 -4 26 -10z m100 0 c0 -5 -5 -10 -11 -10 -5 0 -7 5 -4
10 3 6 8 10 11 10 2 0 4 -4 4 -10z m270 0 c0 -5 -4 -10 -10 -10 -5 0 -10 5
-10 10 0 6 5 10 10 10 6 0 10 -4 10 -10z m382 -42 c-7 -7 -12 -8 -12 -2 0 14
12 26 19 19 2 -3 -1 -11 -7 -17z m-178 -51 c-3 -23 -1 -27 4 -13 10 23 14 18
37 -52 18 -57 15 -82 -10 -82 -13 0 -15 6 -10 30 5 24 3 31 -12 37 -10 3 -21
11 -25 17 -4 6 -11 -1 -17 -17 -13 -33 -51 -38 -51 -7 0 11 -7 20 -15 20 -11
0 -15 12 -15 44 0 49 7 76 21 76 5 0 9 -7 9 -15 0 -8 5 -15 10 -15 6 0 10 8
10 18 0 15 2 15 11 2 9 -13 12 -13 22 3 11 16 13 16 24 2 6 -9 9 -31 7 -48z
m-404 43 c0 -5 -5 -10 -11 -10 -5 0 -7 5 -4 10 3 6 8 10 11 10 2 0 4 -4 4 -10z
m3435 -30 c3 -5 1 -10 -4 -10 -6 0 -11 5 -11 10 0 6 2 10 4 10 3 0 8 -4 11
-10z m-1778 -42 c-3 -8 -6 -5 -6 6 -1 11 2 17 5 13 3 -3 4 -12 1 -19z m-85
-14 c-3 -18 -3 -18 11 1 20 26 31 14 22 -24 -6 -31 -35 -44 -35 -17 0 8 -6 16
-14 19 -9 4 -12 14 -9 27 7 26 29 20 25 -6z m55 -16 c-3 -7 -5 -2 -5 12 0 14
2 19 5 13 2 -7 2 -19 0 -25z m1141 7 c-3 -3 -9 2 -12 12 -6 14 -5 15 5 6 7 -7
10 -15 7 -18z m-1097 -26 c-5 -13 -10 -19 -10 -12 -1 15 10 45 15 40 3 -2 0
-15 -5 -28z m523 -5 c3 -8 2 -12 -4 -9 -6 3 -10 10 -10 16 0 14 7 11 14 -7z
m1046 6 c0 -5 -7 -7 -15 -4 -8 4 -15 8 -15 10 0 2 7 4 15 4 8 0 15 -4 15 -10z
m-2935 -67 c-3 -13 -10 -23 -15 -23 -11 0 -13 50 -3 76 5 15 8 14 15 -7 5 -13
6 -34 3 -46z m859 52 c3 -8 1 -15 -4 -15 -6 0 -10 7 -10 15 0 8 2 15 4 15 2 0
6 -7 10 -15z m-342 -17 c-7 -7 -12 -8 -12 -2 0 14 12 26 19 19 2 -3 -1 -11 -7
-17z m1918 -15 c0 -7 -4 -13 -10 -13 -5 0 -10 12 -10 28 0 21 2 24 10 12 5 -8
10 -21 10 -27z m-1256 11 c4 -10 1 -14 -6 -12 -15 5 -23 28 -10 28 5 0 13 -7
16 -16z m116 -4 c0 -5 -9 -10 -19 -10 -11 0 -23 5 -26 10 -4 6 5 10 19 10 14
0 26 -4 26 -10z m1662 -2 c-9 -9 -15 -9 -24 0 -9 9 -7 12 12 12 19 0 21 -3 12
-12z m-2212 -2 c0 -3 -4 -8 -10 -11 -5 -3 -10 -1 -10 4 0 6 5 11 10 11 6 0 10
-2 10 -4z m127 -2 c-3 -3 -12 -4 -19 -1 -8 3 -5 6 6 6 11 1 17 -2 13 -5z
m-1457 -24 c0 -5 -4 -10 -10 -10 -5 0 -10 5 -10 10 0 6 5 10 10 10 6 0 10 -4
10 -10z m665 -10 c-10 -11 -23 -20 -29 -20 -6 0 0 9 14 20 32 25 38 25 15 0z
m415 -2 c0 -19 -2 -20 -10 -8 -13 19 -13 30 0 30 6 0 10 -10 10 -22z m-3253
-10 c-3 -8 -6 -5 -6 6 -1 11 2 17 5 13 3 -3 4 -12 1 -19z m900 2 c1 -11 -2
-18 -8 -15 -11 7 -12 35 -1 35 4 0 8 -9 9 -20z m1011 -5 c-3 -3 -9 2 -12 12
-6 14 -5 15 5 6 7 -7 10 -15 7 -18z m-1688 -5 c0 -13 -5 -18 -15 -14 -8 4 -15
12 -15 20 0 8 7 14 15 14 8 0 15 -9 15 -20z m200 0 c0 -5 -2 -10 -4 -10 -3 0
-8 5 -11 10 -3 6 -1 10 4 10 6 0 11 -4 11 -10z m144 -6 c3 -8 2 -12 -4 -9 -6
3 -10 10 -10 16 0 14 7 11 14 -7z m1119 -14 c3 -11 1 -23 -4 -26 -5 -3 -9 -2
-10 3 0 4 -2 18 -3 30 -3 27 9 22 17 -7z m-1057 -25 c-9 -25 -21 -17 -22 14
-1 26 1 28 13 15 8 -8 12 -21 9 -29z m30 18 c-10 -10 -19 5 -10 18 6 11 8 11
12 0 2 -7 1 -15 -2 -18z m738 12 c3 -8 1 -15 -4 -15 -6 0 -10 7 -10 15 0 8 2
15 4 15 2 0 6 -7 10 -15z m-1137 -27 c-3 -7 -5 -2 -5 12 0 14 2 19 5 13 2 -7
2 -19 0 -25z m-1518 -35 c1 -7 -3 -13 -9 -13 -5 0 -10 15 -9 33 0 27 2 29 9
12 5 -11 9 -26 9 -32z m1369 35 c-6 -18 -28 -21 -28 -4 0 9 7 16 16 16 9 0 14
-5 12 -12z m568 -15 c-10 -10 -19 5 -10 18 6 11 8 11 12 0 2 -7 1 -15 -2 -18z
m-1986 7 c0 -5 -5 -10 -11 -10 -5 0 -7 5 -4 10 3 6 8 10 11 10 2 0 4 -4 4 -10z
m206 -25 c-15 -15 -16 -15 -12 7 3 13 5 25 5 28 1 2 6 -1 12 -7 9 -9 8 -16 -5
-28z m387 20 c4 -8 2 -17 -3 -20 -6 -4 -10 3 -10 14 0 25 6 27 13 6z m2102 5
c3 -5 2 -10 -4 -10 -5 0 -13 5 -16 10 -3 6 -2 10 4 10 5 0 13 -4 16 -10z
m-2735 -15 c0 -8 -2 -15 -4 -15 -2 0 -6 7 -10 15 -3 8 -1 15 4 15 6 0 10 -7
10 -15z m566 -1 c-3 -9 -6 -23 -6 -31 0 -20 -13 -8 -16 14 -3 20 4 33 18 33 5
0 7 -7 4 -16z m-2406 -14 c0 -5 -2 -10 -4 -10 -3 0 -8 5 -11 10 -3 6 -1 10 4
10 6 0 11 -4 11 -10z m1860 -30 c-7 -4 -9 -13 -6 -19 4 -6 1 -11 -7 -11 -13 0
-13 6 -4 35 9 30 12 33 20 19 6 -11 5 -19 -3 -24z m2725 30 c-3 -5 -10 -10
-16 -10 -5 0 -9 5 -9 10 0 6 7 10 16 10 8 0 12 -4 9 -10z m-4439 -47 c-18 -33
-21 -26 -6 13 6 15 13 24 16 21 3 -3 -1 -18 -10 -34z m250 11 c2 -23 1 -24
-11 -7 -7 10 -11 21 -9 25 10 16 19 7 20 -18z m210 -9 c6 -34 1 -55 -11 -43
-3 3 -9 22 -12 42 -8 48 14 48 23 1z m751 -17 c-3 -8 -6 -5 -6 6 -1 11 2 17 5
13 3 -3 4 -12 1 -19z m-977 3 c0 -6 -4 -13 -10 -16 -5 -3 -10 1 -10 9 0 9 5
16 10 16 6 0 10 -4 10 -9z"/>
<path d="M7495 3390 c-16 -7 -17 -9 -3 -9 9 -1 20 4 23 9 7 11 7 11 -20 0z"/>
<path d="M7402 3305 c0 -16 2 -22 5 -12 2 9 2 23 0 30 -3 6 -5 -1 -5 -18z"/>
<path d="M6995 3299 c-4 -6 -5 -12 -2 -15 2 -3 7 2 10 11 7 17 1 20 -8 4z"/>
<path d="M6854 3275 c-6 -14 3 -52 10 -44 2 2 6 16 10 32 7 29 -10 39 -20 12z"/>
<path d="M6941 3214 c0 -11 3 -14 6 -6 3 7 2 16 -1 19 -3 4 -6 -2 -5 -13z"/>
<path d="M7500 3181 c0 -11 5 -23 10 -26 6 -3 10 3 10 14 0 11 -4 23 -10 26
-5 3 -10 -3 -10 -14z"/>
<path d="M8511 3284 c0 -11 3 -14 6 -6 3 7 2 16 -1 19 -3 4 -6 -2 -5 -13z"/>
<path d="M8356 3235 c4 -8 8 -15 10 -15 2 0 4 7 4 15 0 8 -4 15 -10 15 -5 0
-7 -7 -4 -15z"/>
<path d="M9075 3350 c-3 -5 -2 -10 4 -10 5 0 13 5 16 10 3 6 2 10 -4 10 -5 0
-13 -4 -16 -10z"/>
<path d="M9115 3349 c-4 -6 -4 -13 -1 -16 3 -4 6 -1 6 6 0 10 6 9 24 -3 17
-10 27 -12 31 -5 9 13 6 15 -27 23 -15 3 -30 1 -33 -5z"/>
<path d="M8995 3327 c-4 -9 -17 -17 -30 -17 -14 0 -25 -7 -28 -20 -3 -13 0
-20 9 -20 8 0 14 5 14 10 0 6 11 10 25 10 14 0 25 -4 25 -9 0 -6 -8 -8 -18 -6
-11 2 -19 -3 -19 -11 0 -9 4 -11 12 -4 7 5 14 8 17 5 3 -3 12 3 21 13 14 16
14 19 -3 42 -17 22 -20 23 -25 7z"/>
<path d="M9090 3299 c0 -5 5 -9 10 -10 35 -4 50 -2 53 6 1 6 -13 11 -30 12
-18 1 -33 -3 -33 -8z"/>
<path d="M9200 3306 c0 -2 7 -6 15 -10 8 -3 15 -1 15 4 0 6 -7 10 -15 10 -8 0
-15 -2 -15 -4z"/>
<path d="M8780 3279 c0 -5 5 -7 10 -4 6 3 10 8 10 11 0 2 -4 4 -10 4 -5 0 -10
-5 -10 -11z"/>
<path d="M8930 3234 c0 -8 5 -12 10 -9 6 4 8 11 5 16 -9 14 -15 11 -15 -7z"/>
<path d="M6236 3319 c-9 -26 -1 -84 12 -98 12 -12 13 -5 7 45 -8 64 -12 75
-19 53z"/>
<path d="M165 3320 c-3 -5 -1 -10 4 -10 6 0 11 5 11 10 0 6 -2 10 -4 10 -3 0
-8 -4 -11 -10z"/>
<path d="M6050 3240 c0 -5 5 -10 10 -10 6 0 10 5 10 10 0 6 -4 10 -10 10 -5 0
-10 -4 -10 -10z"/>
<path d="M6446 5201 c-4 -5 3 -7 14 -4 23 6 26 13 6 13 -8 0 -17 -4 -20 -9z"/>
<path d="M6770 5184 l-25 -14 30 0 c39 0 64 15 40 24 -9 3 -17 6 -18 5 -1 -1
-13 -7 -27 -15z"/>
<path d="M3278 5177 c-21 -6 -38 -13 -38 -17 0 -4 29 -13 65 -20 36 -7 65 -17
65 -21 0 -4 16 -7 35 -6 28 2 35 6 35 22 0 17 -12 25 -55 38 -31 9 -59 16 -63
16 -4 -1 -24 -6 -44 -12z"/>
<path d="M3469 5170 c-13 -10 -18 -19 -11 -20 6 0 12 4 12 9 0 5 9 7 20 4 14
-4 20 0 20 11 0 21 -13 20 -41 -4z"/>
<path d="M8390 5179 c-14 -6 -37 -11 -52 -11 -16 -1 -28 -4 -28 -8 0 -7 41
-47 44 -42 0 2 8 1 16 -2 8 -3 50 -10 93 -15 81 -10 130 -2 173 26 13 8 31 14
41 13 40 -5 47 0 22 14 -15 7 -73 17 -130 20 -57 4 -115 9 -129 11 -14 2 -36
-1 -50 -6z"/>
<path d="M8753 5173 c-1 -12 6 -18 23 -19 28 -2 30 4 7 22 -24 18 -29 17 -30
-3z"/>
<path d="M6380 5163 c-14 -3 -45 -11 -68 -19 -66 -22 -303 -46 -422 -43 -169
4 -302 0 -296 -10 11 -17 -23 -34 -55 -27 -20 4 -35 1 -44 -8 -12 -12 -8 -15
30 -21 25 -3 45 -10 45 -16 0 -5 6 -9 14 -9 8 0 28 -8 44 -17 27 -15 37 -16
76 -5 26 6 58 12 72 12 23 0 25 -2 13 -16 -11 -13 -9 -14 12 -9 13 3 43 7 67
9 23 2 45 6 49 9 3 4 18 0 34 -8 32 -17 77 -11 127 17 34 19 87 25 77 9 -14
-23 34 -29 155 -21 69 5 126 9 128 9 1 1 -2 10 -8 20 -8 16 -6 21 9 26 11 3
22 12 25 20 3 8 12 15 20 15 14 0 36 28 36 45 0 4 -10 5 -22 3 -15 -2 -30 5
-41 19 -18 23 -28 25 -77 16z"/>
<path d="M6610 5160 c0 -5 5 -10 11 -10 5 0 7 5 4 10 -3 6 -8 10 -11 10 -2 0
-4 -4 -4 -10z"/>
<path d="M2250 5146 c0 -14 48 -26 138 -32 31 -3 52 0 52 6 0 5 -8 10 -17 10
-10 0 -31 7 -47 15 -37 19 -126 20 -126 1z m120 -16 c0 -5 -4 -10 -9 -10 -6 0
-13 5 -16 10 -3 6 1 10 9 10 9 0 16 -4 16 -10z"/>
<path d="M5176 5145 c-17 -13 -16 -15 20 -30 55 -24 214 -11 214 16 0 5 -9 9
-19 9 -11 0 -22 6 -24 13 -4 8 -6 6 -6 -4 -1 -18 -49 -18 -111 1 -44 13 -51
12 -74 -5z"/>
<path d="M6560 5144 c0 -8 5 -12 10 -9 6 3 10 10 10 16 0 5 -4 9 -10 9 -5 0
-10 -7 -10 -16z"/>
<path d="M62 5063 c-19 -4 -21 -7 -11 -19 17 -20 39 -17 39 6 0 11 -1 19 -2
19 -2 -1 -13 -4 -26 -6z"/>
<path d="M174 5044 c3 -9 6 -18 6 -20 0 -10 39 -3 49 10 9 11 8 15 -5 20 -31
12 -57 7 -50 -10z"/>
<path d="M5488 4782 c-21 -2 -38 -8 -38 -13 0 -6 -4 -7 -10 -4 -5 3 -15 3 -22
-1 -19 -12 90 -33 142 -28 68 7 77 12 54 28 -22 16 -72 23 -126 18z"/>
<path d="M5248 4763 c6 -2 18 -2 25 0 6 3 1 5 -13 5 -14 0 -19 -2 -12 -5z"/>
<path d="M685 4701 c-18 -7 -18 -8 5 -23 14 -9 36 -18 50 -21 21 -5 25 -2 26
18 1 14 -3 25 -10 25 -6 0 -20 2 -31 5 -11 2 -29 1 -40 -4z"/>
<path d="M799 4694 c-10 -12 -4 -14 36 -14 53 0 55 6 7 19 -23 7 -34 6 -43 -5z"/>
<path d="M6053 4702 c-13 -2 -23 -8 -23 -13 0 -12 123 -10 142 2 7 5 9 9 3 10
-19 4 -100 4 -122 1z"/>
<path d="M30 4631 c0 -10 40 -22 52 -15 18 11 6 24 -22 24 -16 0 -30 -4 -30
-9z"/>
<path d="M105 4620 c3 -5 8 -10 11 -10 2 0 4 5 4 10 0 6 -5 10 -11 10 -5 0 -7
-4 -4 -10z"/>
<path d="M140 4620 c0 -5 5 -10 11 -10 5 0 7 5 4 10 -3 6 -8 10 -11 10 -2 0
-4 -4 -4 -10z"/>
<path d="M180 4610 c0 -5 10 -10 23 -10 18 0 19 2 7 10 -19 13 -30 13 -30 0z"/>
<path d="M1294 4593 c3 -4 -3 -12 -15 -18 -21 -12 -20 -12 11 -19 38 -7 35 -8
44 22 6 19 4 22 -20 22 -15 0 -24 -3 -20 -7z"/>
<path d="M6951 4551 c-7 -5 -9 -11 -4 -14 5 -3 15 -2 22 2 7 5 9 11 4 14 -5 3
-15 2 -22 -2z"/>
<path d="M0 4433 c0 -71 -1 -69 77 -76 40 -3 50 -1 46 10 -3 7 2 13 11 13 9 0
16 -7 16 -15 0 -12 13 -15 68 -14 37 1 72 5 78 10 7 6 22 6 35 1 13 -5 69 -9
124 -10 55 -1 130 -6 167 -10 37 -5 71 -5 75 -1 8 7 95 16 247 25 44 2 82 6
84 9 11 11 -87 45 -133 45 -48 1 -108 17 -75 20 10 1 9 4 -5 10 -27 12 -43 12
-25 0 11 -7 7 -10 -17 -10 -18 0 -33 4 -33 9 0 5 -26 12 -57 16 -32 3 -96 12
-143 19 -73 11 -111 13 -161 7 -5 0 -8 -4 -6 -8 3 -5 -8 -8 -24 -8 -16 0 -29
2 -29 5 0 3 -35 5 -77 5 -43 0 -115 3 -160 6 l-83 6 0 -64z"/>
<path d="M0 4020 c0 -5 6 -10 13 -10 8 0 7 -4 -3 -10 -12 -8 -9 -10 12 -10 15
0 30 5 33 10 3 6 17 10 31 10 14 0 22 -4 19 -10 -3 -5 3 -10 13 -10 15 0 19 5
15 20 -5 17 -14 20 -69 20 -36 0 -64 -4 -64 -10z"/>
<path d="M398 3993 c6 -2 18 -2 25 0 6 3 1 5 -13 5 -14 0 -19 -2 -12 -5z"/>
<path d="M8828 3883 c7 -3 16 -2 19 1 4 3 -2 6 -13 5 -11 0 -14 -3 -6 -6z"/>
<path d="M9003 3803 c-18 -2 -33 -9 -33 -14 0 -6 -4 -7 -10 -4 -5 3 -10 1 -10
-4 0 -14 25 -14 73 0 34 9 54 31 25 27 -7 0 -28 -3 -45 -5z"/>
<path d="M3170 3790 c-34 -7 -34 -7 -5 -8 17 0 44 4 60 8 27 7 27 8 5 8 -14
-1 -41 -4 -60 -8z"/>
<path d="M5958 3753 c6 -2 18 -2 25 0 6 3 1 5 -13 5 -14 0 -19 -2 -12 -5z"/>
<path d="M8956 3751 c-4 -6 -12 -9 -17 -6 -5 4 -15 3 -21 -2 -7 -4 -19 -8 -27
-8 -8 0 -16 -5 -18 -12 -3 -8 11 -10 54 -6 32 3 59 7 60 8 2 1 -3 10 -11 20
-9 13 -15 15 -20 6z"/>
<path d="M4860 3725 c0 -10 10 -15 28 -15 26 1 26 1 8 15 -25 19 -36 19 -36 0z"/>
<path d="M5025 3730 c-3 -5 -1 -10 4 -10 6 0 11 5 11 10 0 6 -2 10 -4 10 -3 0
-8 -4 -11 -10z"/>
<path d="M8830 3720 c-8 -5 -11 -12 -7 -16 4 -4 15 0 24 9 18 18 8 23 -17 7z"/>
<path d="M9393 3715 c2 -5 32 -11 66 -13 48 -2 62 0 59 10 -3 9 -25 13 -66 13
-37 0 -61 -4 -59 -10z"/>
<path d="M5665 3710 c-3 -5 -1 -10 4 -10 6 0 11 5 11 10 0 6 -2 10 -4 10 -3 0
-8 -4 -11 -10z"/>
<path d="M8770 3690 c-12 -7 -10 -11 10 -18 14 -5 27 -6 30 -2 3 4 12 10 20
14 8 3 3 4 -12 2 -15 -1 -29 1 -30 5 -2 5 -10 4 -18 -1z"/>
<path d="M1555 3450 c-3 -5 1 -10 10 -10 9 0 13 5 10 10 -3 6 -8 10 -10 10 -2
0 -7 -4 -10 -10z"/>
<path d="M975 3400 c3 -5 8 -10 11 -10 2 0 4 5 4 10 0 6 -5 10 -11 10 -5 0 -7
-4 -4 -10z"/>
<path d="M605 3380 c27 -12 35 -12 35 0 0 6 -12 10 -27 9 -25 0 -26 -1 -8 -9z"/>
<path d="M4605 3380 c-3 -5 1 -10 9 -10 9 0 16 5 16 10 0 6 -4 10 -9 10 -6 0
-13 -4 -16 -10z"/>
<path d="M9325 3370 c3 -5 8 -10 11 -10 2 0 4 5 4 10 0 6 -5 10 -11 10 -5 0
-7 -4 -4 -10z"/>
<path d="M2058 3363 c7 -3 16 -2 19 1 4 3 -2 6 -13 5 -11 0 -14 -3 -6 -6z"/>
<path d="M4065 3360 c18 -8 17 -9 -7 -9 -16 -1 -28 -6 -28 -12 0 -6 9 -8 20
-4 11 3 20 2 20 -3 0 -6 9 -8 20 -5 11 3 20 9 20 14 0 10 -34 29 -52 28 -7 0
-4 -4 7 -9z"/>
<path d="M4130 3353 c0 -5 5 -15 10 -23 8 -12 10 -11 10 8 0 12 -4 22 -10 22
-5 0 -10 -3 -10 -7z"/>
<path d="M4998 3349 c-15 -4 -29 -4 -32 -1 -3 3 -6 1 -6 -5 0 -6 18 -13 40
-15 41 -4 45 -1 32 18 -4 7 -18 8 -34 3z"/>
<path d="M292 3334 c2 -15 -2 -18 -19 -16 -13 2 -23 -2 -23 -7 0 -6 9 -11 19
-11 11 0 28 -3 38 -6 14 -6 16 -4 6 6 -6 7 -9 18 -7 25 3 7 0 16 -6 20 -7 4
-10 0 -8 -11z"/>
<path d="M345 3340 c-4 -6 -11 -8 -16 -5 -14 10 -11 -3 8 -25 10 -11 22 -20
28 -20 5 0 4 4 -4 9 -12 8 -12 12 -2 24 7 10 8 18 2 21 -5 4 -12 2 -16 -4z"/>
<path d="M3535 3340 c3 -5 13 -10 21 -10 8 0 14 5 14 10 0 6 -9 10 -21 10 -11
0 -17 -4 -14 -10z"/>
<path d="M4160 3340 c0 -5 5 -10 10 -10 6 0 10 5 10 10 0 6 -4 10 -10 10 -5 0
-10 -4 -10 -10z"/>
<path d="M5071 3334 c0 -11 3 -14 6 -6 3 7 2 16 -1 19 -3 4 -6 -2 -5 -13z"/>
<path d="M3608 3333 c7 -3 16 -2 19 1 4 3 -2 6 -13 5 -11 0 -14 -3 -6 -6z"/>
<path d="M4218 3323 c7 -3 16 -2 19 1 4 3 -2 6 -13 5 -11 0 -14 -3 -6 -6z"/>
<path d="M4980 3269 c0 -5 5 -7 10 -4 6 3 10 8 10 11 0 2 -4 4 -10 4 -5 0 -10
-5 -10 -11z"/>
<path d="M3798 3258 c-6 -17 1 -38 13 -38 5 0 9 11 9 25 0 26 -14 34 -22 13z"/>
<path d="M5070 3250 c0 -5 5 -10 10 -10 6 0 10 5 10 10 0 6 -4 10 -10 10 -5 0
-10 -4 -10 -10z"/>
<path d="M9 3227 c9 -12 9 -16 -1 -20 -7 -3 -3 -6 9 -6 12 -1 24 -7 26 -13 4
-10 6 -10 6 0 1 7 5 11 9 8 4 -2 14 -1 22 5 13 7 12 9 -2 9 -9 0 -18 4 -20 8
-1 5 -16 12 -32 16 -25 6 -28 5 -17 -7z"/>
<path d="M103 3220 c1 -11 5 -20 9 -20 11 0 10 28 -1 35 -6 3 -9 -4 -8 -15z"/>
<path d="M161 3214 c0 -11 3 -14 6 -6 3 7 2 16 -1 19 -3 4 -6 -2 -5 -13z"/>
<path d="M2862 3160 c0 -14 2 -19 5 -12 2 6 2 18 0 25 -3 6 -5 1 -5 -13z"/>
<path d="M4035 3150 c3 -5 8 -10 11 -10 2 0 4 5 4 10 0 6 -5 10 -11 10 -5 0
-7 -4 -4 -10z"/>
<path d="M1794 3096 c-8 -22 -2 -27 16 -16 12 7 12 12 3 21 -10 10 -14 9 -19
-5z"/>
<path d="M3967 3103 c-12 -12 -7 -22 8 -17 8 4 15 10 15 15 0 11 -14 12 -23 2z"/>
<path d="M1885 3090 c-3 -5 -1 -10 4 -10 6 0 11 5 11 10 0 6 -2 10 -4 10 -3 0
-8 -4 -11 -10z"/>
<path d="M130 3040 c0 -5 7 -7 15 -4 8 4 15 8 15 10 0 2 -7 4 -15 4 -8 0 -15
-4 -15 -10z"/>
<path d="M898 3015 c-3 -14 -1 -28 3 -31 5 -3 9 9 9 25 0 38 -6 40 -12 6z"/>
<path d="M1350 3021 c0 -9 -3 -27 -7 -40 -8 -31 17 -24 35 10 l13 24 -4 -28
c-2 -15 0 -30 4 -33 5 -3 9 6 9 20 0 13 3 31 6 39 4 10 -4 16 -25 19 -23 3
-31 1 -31 -11z"/>
<path d="M1 3004 c0 -11 3 -14 6 -6 3 7 2 16 -1 19 -3 4 -6 -2 -5 -13z"/>
<path d="M1800 3012 c0 -12 19 -26 26 -19 2 2 -2 10 -11 17 -9 8 -15 8 -15 2z"/>
<path d="M1180 2990 c0 -5 5 -10 11 -10 5 0 7 5 4 10 -3 6 -8 10 -11 10 -2 0
-4 -4 -4 -10z"/>
<path d="M980 2980 c0 -5 5 -10 10 -10 6 0 10 5 10 10 0 6 -4 10 -10 10 -5 0
-10 -4 -10 -10z"/>
</g>
</svg>
